<?xml version="1.0" encoding="UTF-8"?>
<svg version="1.1" xmlns="http://www.w3.org/2000/svg" width="732" height="367">
<path d="M0 0 C241.56 0 483.12 0 732 0 C732 121.11 732 242.22 732 367 C490.44 367 248.88 367 0 367 C0 245.89 0 124.78 0 0 Z " fill="#FEFEFE" transform="translate(0,0)"/>
<path d="M0 0 C1.87325203 -0.01270432 1.87325203 -0.01270432 3.78434753 -0.02566528 C7.17301057 -0.04490219 10.5611199 -0.05082357 13.9497993 -0.04891777 C16.79489829 -0.04879706 19.63994727 -0.05740137 22.48503214 -0.06569529 C29.20457445 -0.0848474 35.92399258 -0.08784272 42.64355469 -0.08105469 C49.5408689 -0.07441463 56.43764825 -0.09729528 63.33485407 -0.13436842 C69.29027026 -0.16519991 75.24551554 -0.17641115 81.20100981 -0.1725316 C84.74324538 -0.17047852 88.28506399 -0.17571744 91.82722282 -0.20042419 C95.78215871 -0.22710612 99.73640864 -0.21286132 103.69140625 -0.1953125 C104.84141113 -0.20857574 105.99141602 -0.22183899 107.17626953 -0.23550415 C119.21121401 -0.11223921 129.20955174 3.6622232 137.82055664 12.09179688 C146.16866513 21.39174578 148.36224076 30.68499118 148.31445312 42.93530273 C148.32131638 44.17047134 148.32817963 45.40563995 148.33525085 46.67823792 C148.3503566 50.04621764 148.35202946 53.41364108 148.34630847 56.78161311 C148.34320485 59.60203259 148.34932203 62.42240266 148.35534722 65.24281508 C148.3693642 71.90076995 148.36785478 78.55859643 148.35644531 85.21655273 C148.34496634 92.06608128 148.35904218 98.91521816 148.38584179 105.76469511 C148.40805201 111.66391457 148.41462425 117.56301157 148.40876538 123.46226984 C148.40540731 126.9775405 148.40773355 130.49256017 148.4250164 134.00779533 C148.44346281 137.93039989 148.42924373 141.85252863 148.41210938 145.77514648 C148.42661133 147.50309952 148.42661133 147.50309952 148.44140625 149.26596069 C148.3777114 156.24692235 147.2717357 161.30559682 143.91040039 167.41992188 C143.24036473 168.75156538 142.5727278 170.08442772 141.91040039 171.41992188 C141.25040039 171.41992188 140.59040039 171.41992188 139.91040039 171.41992188 C139.6487207 172.00902344 139.38704102 172.598125 139.11743164 173.20507812 C135.17746268 180.43472991 127.88736802 183.66031519 120.48613739 186.38996696 C114.70104993 188.05630295 109.1705227 188.1092757 103.18481445 188.05102539 C101.88064072 188.05818069 100.57646698 188.065336 99.23277283 188.07270813 C95.69766066 188.09102437 92.16331484 188.07841432 88.62823582 188.05861783 C84.90756597 188.04207797 81.18693887 188.05106468 77.46624756 188.05613708 C71.22599211 188.06063886 64.9860383 188.04490255 58.74584961 188.0168457 C51.55139816 187.98474596 44.35748863 187.98483746 37.16299844 188.00206047 C30.20948569 188.01796679 23.25616992 188.01116936 16.30266571 187.99412346 C13.35708053 187.98728624 10.41165484 187.98825067 7.46607208 187.99566841 C3.34988181 188.00480824 -0.76548218 187.98070772 -4.8815918 187.95336914 C-6.69594475 187.96315796 -6.69594475 187.96315796 -8.54695129 187.97314453 C-19.18637471 187.85328495 -27.24355144 184.66361596 -35.08959961 177.41992188 C-42.66909651 169.17244773 -47.18291626 161.53512408 -47.23677063 150.14045715 C-47.24392593 149.09626617 -47.25108124 148.0520752 -47.25845337 146.97624207 C-47.26114227 145.84108658 -47.26383118 144.70593109 -47.26660156 143.53637695 C-47.27317276 142.33251343 -47.27974396 141.1286499 -47.28651428 139.88830566 C-47.30622035 135.90535225 -47.31791016 131.92243904 -47.32788086 127.93945312 C-47.33193143 126.5636919 -47.33604844 125.18793086 -47.34023094 123.81217003 C-47.35926658 117.34620561 -47.37350042 110.88025248 -47.38184291 104.41426545 C-47.39160638 96.97156454 -47.41790916 89.52916174 -47.4583438 82.08656579 C-47.48858904 76.3198996 -47.50331975 70.55331846 -47.50662392 64.78657454 C-47.50896501 61.34887695 -47.51780137 57.91149839 -47.5430851 54.47388649 C-47.56748521 50.63249743 -47.56650922 46.79188261 -47.55957031 42.95043945 C-47.57238037 41.82540512 -47.58519043 40.70037079 -47.59838867 39.54124451 C-47.52008788 27.60761254 -43.36174138 18.94967359 -35.08959961 10.41992188 C-24.86993779 1.26695876 -13.27777606 -0.03377683 0 0 Z " fill="#475FF8" transform="translate(123.089599609375,87.580078125)"/>
<path d="M0 0 C16.2944181 -0.52846761 32.63617504 1.74764207 46.25 11.1875 C49.06054168 13.06675554 49.06054168 13.06675554 52 14 C55.22967514 13.15446273 57.41045281 11.76827617 60.171875 9.90234375 C72.54491222 1.57959634 90.36888078 -1.24929097 105 0 C106 1 106 1 106.09765625 4.16015625 C106.08605469 5.44792969 106.07445312 6.73570312 106.0625 8.0625 C106.05347656 9.35285156 106.04445313 10.64320313 106.03515625 11.97265625 C106.02355469 12.97167969 106.01195312 13.97070312 106 15 C107.17369141 14.98259766 107.17369141 14.98259766 108.37109375 14.96484375 C109.88896484 14.95130859 109.88896484 14.95130859 111.4375 14.9375 C112.44683594 14.92589844 113.45617187 14.91429687 114.49609375 14.90234375 C117 15 117 15 118 16 C118.10033866 18.48953697 118.13617943 20.95134953 118.12939453 23.44140625 C118.13202301 24.60964432 118.13202301 24.60964432 118.13470459 25.80148315 C118.13912349 28.38851111 118.13618499 30.97547129 118.1328125 33.5625 C118.13348553 35.35229506 118.13445554 37.14209002 118.13571167 38.93188477 C118.13718869 42.68799711 118.13503394 46.44408572 118.13037109 50.20019531 C118.1246738 55.02600493 118.12795278 59.85175895 118.13394356 64.67756653 C118.13754905 68.37488223 118.13641064 72.07218464 118.13381577 75.76950073 C118.13314646 77.54938768 118.13397503 79.32927582 118.13629532 81.10916138 C118.13882165 83.59233822 118.13498154 86.07542374 118.12939453 88.55859375 C118.13141876 89.30148651 118.13344299 90.04437927 118.13552856 90.80978394 C118.11426262 95.88573738 118.11426262 95.88573738 117 97 C115.40389018 97.09333705 113.80366572 97.11745372 112.20483398 97.11352539 C111.18385117 97.11344986 110.16286835 97.11337433 109.11094666 97.11329651 C108.0005452 97.10813522 106.89014374 97.10297394 105.74609375 97.09765625 C104.61551041 97.0962413 103.48492706 97.09482635 102.32008362 97.09336853 C98.69252935 97.08775019 95.06503576 97.07519458 91.4375 97.0625 C88.98502693 97.05748736 86.5325529 97.05292405 84.08007812 97.04882812 C78.05336455 97.0377748 72.02668661 97.02101884 66 97 C65.58041016 97.92232422 65.58041016 97.92232422 65.15234375 98.86328125 C63.09666382 102.67499962 60.03794404 104.65401865 56 106 C50.73472419 106.39737931 47.49318454 105.79575927 43 103 C40.625 100.9375 40.625 100.9375 39 99 C39 98.34 39 97.68 39 97 C38.06705612 97.00666183 38.06705612 97.00666183 37.11526489 97.01345825 C30.65938609 97.0576024 24.20354995 97.08782918 17.74755859 97.10986328 C15.33608256 97.11993954 12.92461878 97.13360081 10.51318359 97.15087891 C7.05302915 97.1750559 3.5930358 97.18646669 0.1328125 97.1953125 C-0.95055389 97.20563507 -2.03392029 97.21595764 -3.15011597 97.22659302 C-4.1510025 97.22674408 -5.15188904 97.22689514 -6.18310547 97.22705078 C-7.06690887 97.231492 -7.95071228 97.23593323 -8.86129761 97.24050903 C-11 97 -11 97 -13 95 C-13.19823371 92.51143088 -13.27280688 90.13415863 -13.25878906 87.64453125 C-13.2622937 86.88667328 -13.26579834 86.12881531 -13.26940918 85.34799194 C-13.2782313 82.83606886 -13.27237574 80.32442608 -13.265625 77.8125 C-13.26697151 76.07136989 -13.26891193 74.33024015 -13.27142334 72.58911133 C-13.27437525 68.93730088 -13.27007483 65.28558817 -13.26074219 61.63378906 C-13.24934759 56.94593019 -13.25590671 52.2583003 -13.26788712 47.57044983 C-13.27510392 43.9743069 -13.27281862 40.37821852 -13.26763153 36.78207397 C-13.26629454 35.0532529 -13.26794449 33.32442692 -13.27259064 31.59561157 C-13.27765297 29.18209659 -13.26994999 26.76895577 -13.25878906 24.35546875 C-13.26283752 23.63644379 -13.26688599 22.91741882 -13.27105713 22.17660522 C-13.22852896 17.22852896 -13.22852896 17.22852896 -11 15 C-8.6171875 14.8046875 -8.6171875 14.8046875 -5.875 14.875 C-4.50988281 14.90207031 -4.50988281 14.90207031 -3.1171875 14.9296875 C-2.41851562 14.95289063 -1.71984375 14.97609375 -1 15 C-1.01160156 14.08476562 -1.02320312 13.16953125 -1.03515625 12.2265625 C-1.04417969 11.03804687 -1.05320312 9.84953125 -1.0625 8.625 C-1.07410156 7.44164062 -1.08570312 6.25828125 -1.09765625 5.0390625 C-1 2 -1 2 0 0 Z " fill="#475FF9" transform="translate(121,130)"/>
<path d="M0 0 C55.60590731 0 55.60590731 0 71.33984375 14.24609375 C81.67281769 25.1625768 84.17631424 36.75035151 84.25 51.3125 C84.270625 52.31990234 84.29125 53.32730469 84.3125 54.36523438 C84.37609427 66.56738579 79.09261534 78.32755794 70.828125 87.375 C50.45994755 105.48004663 27.12998778 101 0 101 C0 67.67 0 34.34 0 0 Z " fill="#303640" transform="translate(350,128)"/>
<path d="M0 0 C1.87325203 -0.01270432 1.87325203 -0.01270432 3.78434753 -0.02566528 C7.17301057 -0.04490219 10.5611199 -0.05082357 13.9497993 -0.04891777 C16.79489829 -0.04879706 19.63994727 -0.05740137 22.48503214 -0.06569529 C29.20457445 -0.0848474 35.92399258 -0.08784272 42.64355469 -0.08105469 C49.5408689 -0.07441463 56.43764825 -0.09729528 63.33485407 -0.13436842 C69.29027026 -0.16519991 75.24551554 -0.17641115 81.20100981 -0.1725316 C84.74324538 -0.17047852 88.28506399 -0.17571744 91.82722282 -0.20042419 C95.78215871 -0.22710612 99.73640864 -0.21286132 103.69140625 -0.1953125 C104.84141113 -0.20857574 105.99141602 -0.22183899 107.17626953 -0.23550415 C119.21121401 -0.11223921 129.20955174 3.6622232 137.82055664 12.09179688 C146.16866513 21.39174578 148.36224076 30.68499118 148.31445312 42.93530273 C148.32131638 44.17047134 148.32817963 45.40563995 148.33525085 46.67823792 C148.3503566 50.04621764 148.35202946 53.41364108 148.34630847 56.78161311 C148.34320485 59.60203259 148.34932203 62.42240266 148.35534722 65.24281508 C148.3693642 71.90076995 148.36785478 78.55859643 148.35644531 85.21655273 C148.34496634 92.06608128 148.35904218 98.91521816 148.38584179 105.76469511 C148.40805201 111.66391457 148.41462425 117.56301157 148.40876538 123.46226984 C148.40540731 126.9775405 148.40773355 130.49256017 148.4250164 134.00779533 C148.44346281 137.93039989 148.42924373 141.85252863 148.41210938 145.77514648 C148.42661133 147.50309952 148.42661133 147.50309952 148.44140625 149.26596069 C148.3777114 156.24692235 147.2717357 161.30559682 143.91040039 167.41992188 C143.24036473 168.75156538 142.5727278 170.08442772 141.91040039 171.41992188 C141.25040039 171.41992188 140.59040039 171.41992188 139.91040039 171.41992188 C139.6487207 172.00902344 139.38704102 172.598125 139.11743164 173.20507812 C135.17746268 180.43472991 127.88736802 183.66031519 120.48613739 186.38996696 C114.70104993 188.05630295 109.1705227 188.1092757 103.18481445 188.05102539 C101.88064072 188.05818069 100.57646698 188.065336 99.23277283 188.07270813 C95.69766066 188.09102437 92.16331484 188.07841432 88.62823582 188.05861783 C84.90756597 188.04207797 81.18693887 188.05106468 77.46624756 188.05613708 C71.22599211 188.06063886 64.9860383 188.04490255 58.74584961 188.0168457 C51.55139816 187.98474596 44.35748863 187.98483746 37.16299844 188.00206047 C30.20948569 188.01796679 23.25616992 188.01116936 16.30266571 187.99412346 C13.35708053 187.98728624 10.41165484 187.98825067 7.46607208 187.99566841 C3.34988181 188.00480824 -0.76548218 187.98070772 -4.8815918 187.95336914 C-6.69594475 187.96315796 -6.69594475 187.96315796 -8.54695129 187.97314453 C-19.18637471 187.85328495 -27.24355144 184.66361596 -35.08959961 177.41992188 C-42.66909651 169.17244773 -47.18291626 161.53512408 -47.23677063 150.14045715 C-47.24392593 149.09626617 -47.25108124 148.0520752 -47.25845337 146.97624207 C-47.26114227 145.84108658 -47.26383118 144.70593109 -47.26660156 143.53637695 C-47.27317276 142.33251343 -47.27974396 141.1286499 -47.28651428 139.88830566 C-47.30622035 135.90535225 -47.31791016 131.92243904 -47.32788086 127.93945312 C-47.33193143 126.5636919 -47.33604844 125.18793086 -47.34023094 123.81217003 C-47.35926658 117.34620561 -47.37350042 110.88025248 -47.38184291 104.41426545 C-47.39160638 96.97156454 -47.41790916 89.52916174 -47.4583438 82.08656579 C-47.48858904 76.3198996 -47.50331975 70.55331846 -47.50662392 64.78657454 C-47.50896501 61.34887695 -47.51780137 57.91149839 -47.5430851 54.47388649 C-47.56748521 50.63249743 -47.56650922 46.79188261 -47.55957031 42.95043945 C-47.57238037 41.82540512 -47.58519043 40.70037079 -47.59838867 39.54124451 C-47.52008788 27.60761254 -43.36174138 18.94967359 -35.08959961 10.41992188 C-24.86993779 1.26695876 -13.27777606 -0.03377683 0 0 Z M-19.08959961 14.41992188 C-19.84370117 14.76152344 -20.59780273 15.103125 -21.37475586 15.45507812 C-28.59468886 19.62835808 -33.43190282 26.56654758 -36.08959961 34.41992188 C-37.29337303 39.95278174 -37.25132101 45.40666673 -37.26660156 51.04003906 C-37.27317276 52.09774506 -37.27974396 53.15545105 -37.28651428 54.24520874 C-37.3061796 57.73573892 -37.31789406 61.22622623 -37.32788086 64.71679688 C-37.33195639 65.91239479 -37.33603191 67.10799271 -37.34023094 68.33982086 C-37.36106157 74.66664963 -37.37537701 80.9934569 -37.38476562 87.3203125 C-37.39583123 93.84130353 -37.43024206 100.36195347 -37.46993732 106.88282394 C-37.49612509 111.9101422 -37.50445935 116.93737936 -37.5080471 121.96475983 C-37.51290642 124.36801714 -37.52450157 126.77127099 -37.5430851 129.17446136 C-37.56752449 132.54398932 -37.56650245 135.91263646 -37.55957031 139.28222656 C-37.57238037 140.26542877 -37.58519043 141.24863098 -37.59838867 142.2616272 C-37.51934322 152.85555227 -33.6367556 161.94187904 -26.08959961 169.41992188 C-19.48962757 174.40262032 -14.18133295 177.54852803 -5.86309814 177.54017639 C-4.80583023 177.54155106 -3.74856232 177.54292572 -2.65925598 177.54434204 C-0.92756416 177.53894913 -0.92756416 177.53894913 0.83911133 177.53344727 C2.05889175 177.53359329 3.27867218 177.53373932 4.53541565 177.53388977 C7.87600561 177.53331267 11.21653369 177.52829896 14.55711269 177.52131581 C18.04981237 177.51506259 21.54251288 177.51447692 25.03521729 177.51329041 C31.64725311 177.5101829 38.25927239 177.50197733 44.87130094 177.49194092 C52.39966413 177.48076176 59.92802811 177.47526478 67.45639753 177.47024548 C82.94107473 177.45979424 98.42573543 177.44220603 113.91040039 177.41992188 C113.91040039 176.75992188 113.91040039 176.09992188 113.91040039 175.41992188 C114.57040039 175.33742188 115.23040039 175.25492188 115.91040039 175.16992188 C123.25402001 173.33401697 128.88618636 169.93986509 132.91040039 163.41992188 C135.70347231 157.11989383 138.02516509 150.7184646 138.05084229 143.78547668 C138.05655243 142.85901337 138.06226257 141.93255005 138.06814575 140.97801208 C138.06926361 139.96860062 138.07038147 138.95918915 138.0715332 137.91918945 C138.07649811 136.85041565 138.08146301 135.78164185 138.08657837 134.68048096 C138.10119244 131.14179847 138.10800135 127.60316084 138.11352539 124.06445312 C138.11927818 121.60308328 138.1250359 119.14171345 138.13079834 116.68034363 C138.14130668 111.51630444 138.14715021 106.3522808 138.15063477 101.18823242 C138.15611412 94.58195255 138.18013118 87.97587933 138.20860672 81.36966419 C138.22726318 76.283192 138.23244035 71.19676924 138.23397064 66.11026573 C138.23699171 63.67549194 138.24500175 61.24071891 138.25815582 58.80597878 C138.27527609 55.3930367 138.27332102 51.98059496 138.2668457 48.56762695 C138.28066788 47.06869148 138.28066788 47.06869148 138.29476929 45.53947449 C138.24783055 37.61209048 136.92479276 30.29237884 131.91040039 23.91992188 C131.16790039 22.94539063 131.16790039 22.94539063 130.41040039 21.95117188 C128.8805061 20.15639587 128.8805061 20.15639587 125.91040039 19.41992188 C125.58040039 18.42992187 125.25040039 17.43992187 124.91040039 16.41992188 C117.03366612 11.70196848 109.28823 10.6965898 100.29223633 10.8046875 C99.0938916 10.79913849 97.89554688 10.79358948 96.66088867 10.78787231 C93.41284151 10.77816974 90.16586425 10.7905239 86.91791821 10.81415749 C83.49974794 10.83445621 80.0816069 10.82837747 76.66339111 10.8260498 C70.93080636 10.82610315 65.19855378 10.84572669 59.46606445 10.87792969 C52.85617754 10.91488304 46.24672388 10.92359314 39.63674712 10.91663218 C33.24868077 10.9103111 26.86076153 10.92110652 20.47272491 10.94059753 C17.76637918 10.94873186 15.06010904 10.9514885 12.35375214 10.9499054 C8.5725916 10.95170701 4.79204109 10.9731194 1.01098633 11 C-0.1008905 10.9970694 -1.21276733 10.99413879 -2.3583374 10.99111938 C-8.65672856 11.06005353 -13.34286183 11.80926543 -19.08959961 14.41992188 Z " fill="#7892E9" transform="translate(123.089599609375,87.580078125)"/>
<path d="M0 0 C2.99169942 2.09581111 5.38422774 4.36237421 7.8828125 7.01953125 C9.15125 8.28796875 9.15125 8.28796875 10.4453125 9.58203125 C15.89644054 16.32693968 17.61940447 25.47239912 17.25390625 33.9453125 C15.93579314 44.86483901 12.36567875 52.86485381 3.8828125 60.01953125 C-6.52320206 67.16142581 -15.52039716 69.58476172 -28.1171875 68.01953125 C-38.42721606 65.6081104 -46.04589149 60.04147019 -51.89453125 51.390625 C-57.79771783 41.84829751 -58.82655015 31.62752358 -56.36328125 20.6640625 C-52.61243999 9.99990597 -46.2104511 2.52712491 -36.3046875 -2.91796875 C-24.1400749 -7.96966204 -11.23649232 -6.21391563 0 0 Z " fill="#313741" transform="translate(617.1171875,162.98046875)"/>
<path d="M0 0 C15.09686972 -0.48962821 36.11634407 1.12059668 48 12 C49.5 14.8125 49.5 14.8125 50 17 C49.01 17.495 49.01 17.495 48 18 C44.48523543 16.80749059 41.08682863 15.46135511 37.671875 14.01171875 C26.78045742 9.46191689 16.96886634 7.92068203 5 7 C5 29.77 5 52.54 5 76 C7.64 76 10.28 76 13 76 C15.96875 76.4375 15.96875 76.4375 18.5 77 C19.78390625 77.2784375 19.78390625 77.2784375 21.09375 77.5625 C21.7228125 77.706875 22.351875 77.85125 23 78 C23.33 79.65 23.66 81.3 24 83 C19.66589964 82.6761483 15.33276873 82.34119969 11 82 C9.37771484 81.87431641 9.37771484 81.87431641 7.72265625 81.74609375 C6.25119141 81.62427734 6.25119141 81.62427734 4.75 81.5 C3.85796875 81.4278125 2.9659375 81.355625 2.046875 81.28125 C0 81 0 81 -1 80 C-1.09386381 78.1281906 -1.11743804 76.2528194 -1.11352539 74.37866211 C-1.11344986 73.17749252 -1.11337433 71.97632294 -1.11329651 70.73875427 C-1.10813522 69.4314888 -1.10297394 68.12422333 -1.09765625 66.77734375 C-1.09579198 65.43355868 -1.09436812 64.08977293 -1.09336853 62.74598694 C-1.08954402 59.20317723 -1.07971432 55.6604083 -1.06866455 52.11761475 C-1.05844899 48.50484773 -1.0538706 44.89207416 -1.04882812 41.27929688 C-1.03809198 34.1861812 -1.02101636 27.09309326 -1 20 C-2.98 20 -4.96 20 -7 20 C-7 43.76 -7 67.52 -7 92 C9.23046096 91.76276523 9.23046096 91.76276523 25.4597168 91.45947266 C27.49786496 91.44194529 29.53603414 91.42665684 31.57421875 91.4140625 C32.62822876 91.3833667 33.68223877 91.3526709 34.76818848 91.32104492 C42.13610205 91.31577899 42.13610205 91.31577899 44.6925354 93.34051514 C45.87793956 94.83135659 46.9466394 96.41310911 48 98 C51.47233843 98.97469149 53.76715062 99.34245816 57.25 98.375 C59.23125747 97.07031006 59.23125747 97.07031006 59.9074707 94.44458008 C62 92 62 92 64.20223999 91.55844116 C67.22257792 91.41887254 70.20777316 91.43906605 73.23046875 91.51171875 C74.70030212 91.51927185 74.70030212 91.51927185 76.1998291 91.52697754 C79.86268338 91.5531519 83.52512085 91.62295915 87.1875 91.6875 C95.375625 91.790625 103.56375 91.89375 112 92 C112 68.57 112 45.14 112 21 C110.35 21 108.7 21 107 21 C107.00222061 21.73693588 107.00444122 22.47387177 107.00672913 23.23313904 C107.02673203 30.16412769 107.04197413 37.09511204 107.05181217 44.02612209 C107.05703995 47.58977422 107.06413569 51.15340257 107.07543945 54.71704102 C107.08834176 58.81006097 107.09322906 62.9030558 107.09765625 66.99609375 C107.10281754 68.28148544 107.10797882 69.56687714 107.11329651 70.89122009 C107.11337204 72.07236893 107.11344757 73.25351776 107.11352539 74.47045898 C107.115746 75.51636703 107.11796661 76.56227509 107.12025452 77.63987732 C107 80 107 80 106 81 C104.58672053 81.15620555 103.1664541 81.25056173 101.74609375 81.31640625 C100.89208984 81.35830078 100.03808594 81.40019531 99.15820312 81.44335938 C98.26037109 81.48267578 97.36253906 81.52199219 96.4375 81.5625 C95.53580078 81.60568359 94.63410156 81.64886719 93.70507812 81.69335938 C91.47021515 81.79978142 89.23523692 81.90179988 87 82 C86.67 81.01 86.34 80.02 86 79 C90.62 78.01 95.24 77.02 100 76 C100.33 52.9 100.66 29.8 101 6 C94.73 6.99 88.46 7.98 82 9 C76.66705126 9.68929269 71.33977654 10.37395723 66 11 C68.6875 7.078125 68.6875 7.078125 71.5 6.375 C72.325 6.25125 73.15 6.1275 74 6 C74.99 5.34 75.98 4.68 77 4 C77.99 4 78.98 4 80 4 C80 3.34 80 2.68 80 2 C88.34324936 0.31631725 96.47929345 -0.5680471 105 0 C106 1 106 1 106.09765625 4.16015625 C106.08605469 5.44792969 106.07445312 6.73570312 106.0625 8.0625 C106.05347656 9.35285156 106.04445313 10.64320313 106.03515625 11.97265625 C106.02355469 12.97167969 106.01195312 13.97070312 106 15 C107.17369141 14.98259766 107.17369141 14.98259766 108.37109375 14.96484375 C109.88896484 14.95130859 109.88896484 14.95130859 111.4375 14.9375 C112.44683594 14.92589844 113.45617187 14.91429687 114.49609375 14.90234375 C117 15 117 15 118 16 C118.10033866 18.48953697 118.13617943 20.95134953 118.12939453 23.44140625 C118.13202301 24.60964432 118.13202301 24.60964432 118.13470459 25.80148315 C118.13912349 28.38851111 118.13618499 30.97547129 118.1328125 33.5625 C118.13348553 35.35229506 118.13445554 37.14209002 118.13571167 38.93188477 C118.13718869 42.68799711 118.13503394 46.44408572 118.13037109 50.20019531 C118.1246738 55.02600493 118.12795278 59.85175895 118.13394356 64.67756653 C118.13754905 68.37488223 118.13641064 72.07218464 118.13381577 75.76950073 C118.13314646 77.54938768 118.13397503 79.32927582 118.13629532 81.10916138 C118.13882165 83.59233822 118.13498154 86.07542374 118.12939453 88.55859375 C118.13141876 89.30148651 118.13344299 90.04437927 118.13552856 90.80978394 C118.11426262 95.88573738 118.11426262 95.88573738 117 97 C115.40389018 97.09333705 113.80366572 97.11745372 112.20483398 97.11352539 C111.18385117 97.11344986 110.16286835 97.11337433 109.11094666 97.11329651 C108.0005452 97.10813522 106.89014374 97.10297394 105.74609375 97.09765625 C104.61551041 97.0962413 103.48492706 97.09482635 102.32008362 97.09336853 C98.69252935 97.08775019 95.06503576 97.07519458 91.4375 97.0625 C88.98502693 97.05748736 86.5325529 97.05292405 84.08007812 97.04882812 C78.05336455 97.0377748 72.02668661 97.02101884 66 97 C65.58041016 97.92232422 65.58041016 97.92232422 65.15234375 98.86328125 C63.09666382 102.67499962 60.03794404 104.65401865 56 106 C50.73472419 106.39737931 47.49318454 105.79575927 43 103 C40.625 100.9375 40.625 100.9375 39 99 C39 98.34 39 97.68 39 97 C38.06705612 97.00666183 38.06705612 97.00666183 37.11526489 97.01345825 C30.65938609 97.0576024 24.20354995 97.08782918 17.74755859 97.10986328 C15.33608256 97.11993954 12.92461878 97.13360081 10.51318359 97.15087891 C7.05302915 97.1750559 3.5930358 97.18646669 0.1328125 97.1953125 C-0.95055389 97.20563507 -2.03392029 97.21595764 -3.15011597 97.22659302 C-4.1510025 97.22674408 -5.15188904 97.22689514 -6.18310547 97.22705078 C-7.06690887 97.231492 -7.95071228 97.23593323 -8.86129761 97.24050903 C-11 97 -11 97 -13 95 C-13.19823371 92.51143088 -13.27280688 90.13415863 -13.25878906 87.64453125 C-13.2622937 86.88667328 -13.26579834 86.12881531 -13.26940918 85.34799194 C-13.2782313 82.83606886 -13.27237574 80.32442608 -13.265625 77.8125 C-13.26697151 76.07136989 -13.26891193 74.33024015 -13.27142334 72.58911133 C-13.27437525 68.93730088 -13.27007483 65.28558817 -13.26074219 61.63378906 C-13.24934759 56.94593019 -13.25590671 52.2583003 -13.26788712 47.57044983 C-13.27510392 43.9743069 -13.27281862 40.37821852 -13.26763153 36.78207397 C-13.26629454 35.0532529 -13.26794449 33.32442692 -13.27259064 31.59561157 C-13.27765297 29.18209659 -13.26994999 26.76895577 -13.25878906 24.35546875 C-13.26283752 23.63644379 -13.26688599 22.91741882 -13.27105713 22.17660522 C-13.22852896 17.22852896 -13.22852896 17.22852896 -11 15 C-8.6171875 14.8046875 -8.6171875 14.8046875 -5.875 14.875 C-4.50988281 14.90207031 -4.50988281 14.90207031 -3.1171875 14.9296875 C-2.41851562 14.95289063 -1.71984375 14.97609375 -1 15 C-1.01160156 14.08476562 -1.02320312 13.16953125 -1.03515625 12.2265625 C-1.04417969 11.03804687 -1.05320312 9.84953125 -1.0625 8.625 C-1.07410156 7.44164062 -1.08570312 6.25828125 -1.09765625 5.0390625 C-1 2 -1 2 0 0 Z " fill="#ECF1FD" transform="translate(121,130)"/>
<path d="M0 0 C14.64419476 0 14.64419476 0 20.3125 1.8125 C21.47910156 2.18117187 22.64570313 2.54984375 23.84765625 2.9296875 C24.88792969 3.28289062 25.92820313 3.63609375 27 4 C28.14275391 4.37511719 28.14275391 4.37511719 29.30859375 4.7578125 C34.83607081 6.69298556 39.69156315 9.34578158 45 12 C45 34.77 45 57.54 45 81 C36 78 36 78 33.1171875 76.4765625 C28.61993388 74.34628447 23.97185024 73.42612415 19.125 72.375 C18.16980469 72.1584375 17.21460938 71.941875 16.23046875 71.71875 C10.78390655 70.50840284 5.58055851 69.69756981 0 69 C0 46.23 0 23.46 0 0 Z " fill="#475FF6" transform="translate(126,137)"/>
<path d="M0 0 C28.78695652 0 28.78695652 0 39 9 C45.62429041 16.81029874 48.57234715 24.64550259 48.2890625 34.84375 C47.41565452 44.3804209 45.0358953 54.59334111 37.75 61.25 C25.71247482 70.75058439 16.43736434 69 0 69 C0 46.23 0 23.46 0 0 Z " fill="#FBFCFC" transform="translate(368,144)"/>
<path d="M0 0 C6.79647698 4.5735691 10.05275995 10.04646953 11.875 17.875 C12.25187048 21.89452399 12.22639585 25.87595026 12.16796875 29.91015625 C12.16372391 31.02942001 12.15947906 32.14868378 12.15510559 33.30186462 C12.13842531 36.84732983 12.10079232 40.39220902 12.0625 43.9375 C12.04743943 46.35350737 12.03375343 48.76952372 12.02148438 51.18554688 C11.98855659 57.08225416 11.93684778 62.97852801 11.875 68.875 C6.265 68.875 0.655 68.875 -5.125 68.875 C-5.154729 66.92279541 -5.154729 66.92279541 -5.18505859 64.93115234 C-5.26129747 60.08916316 -5.34998674 55.24746732 -5.44238281 50.40576172 C-5.48059706 48.3127218 -5.51546298 46.2196179 -5.546875 44.12646484 C-5.59268959 41.11272359 -5.65065719 38.09941992 -5.7109375 35.0859375 C-5.72248871 34.15445892 -5.73403992 33.22298035 -5.74594116 32.26327515 C-5.87898715 26.36777998 -6.12306521 21.26440604 -10.0625 16.5625 C-13.49590106 13.75335368 -16.71696878 13.58833068 -21.06640625 13.66015625 C-25.60389622 14.13370833 -28.406041 16.09774702 -31.4375 19.375 C-33.70331144 22.73175768 -34.25096786 25.29825468 -34.33032227 29.25463867 C-34.35026749 30.13532516 -34.37021271 31.01601166 -34.39076233 31.92338562 C-34.41583107 33.34382927 -34.41583107 33.34382927 -34.44140625 34.79296875 C-34.46218735 35.76534988 -34.48296844 36.73773102 -34.50437927 37.73957825 C-34.56978748 40.84714665 -34.62871929 43.95479985 -34.6875 47.0625 C-34.73069351 49.16862858 -34.77430807 51.27474856 -34.81835938 53.38085938 C-34.92545999 58.54548591 -35.02675219 63.71019778 -35.125 68.875 C-40.735 68.875 -46.345 68.875 -52.125 68.875 C-52.125 46.105 -52.125 23.335 -52.125 -0.125 C-46.845 -0.125 -41.565 -0.125 -36.125 -0.125 C-36.125 2.845 -36.125 5.815 -36.125 8.875 C-35.6403125 8.41609375 -35.155625 7.9571875 -34.65625 7.484375 C-24.90081242 -1.44560248 -13.0210902 -6.73955925 0 0 Z " fill="#2E333D" transform="translate(536.125,160.125)"/>
<path d="M0 0 C-3.93135133 2.05927927 -7.78481638 3.62761464 -12 5 C-12.33 5.33 -12.66 5.66 -13 6 C-10.69 6 -8.38 6 -6 6 C-9.90552252 8.60368168 -14.06615425 10.51692327 -18.28515625 12.5625 C-21.05457606 13.85856095 -21.05457606 13.85856095 -23 16 C-23.29379827 18.91502267 -23.29379827 18.91502267 -23.22705078 22.37744141 C-23.22734283 23.03122269 -23.22763489 23.68500397 -23.22793579 24.3585968 C-23.22654065 26.52305296 -23.2109712 28.68716636 -23.1953125 30.8515625 C-23.19158302 32.35085868 -23.18873574 33.8501573 -23.18673706 35.34945679 C-23.17909548 39.29836743 -23.1594426 43.24713129 -23.1373291 47.19598389 C-23.1168819 51.22438572 -23.10773776 55.25281124 -23.09765625 59.28125 C-23.07619711 67.18756741 -23.04205495 75.09376545 -23 83 C-22.45254623 82.72470963 -21.90509247 82.44941925 -21.34104919 82.16578674 C-20.26235313 81.62461464 -20.26235313 81.62461464 -19.16186523 81.07250977 C-18.44941147 80.71471939 -17.7369577 80.35692902 -17.00291443 79.98829651 C-10.0176371 76.54155655 -2.88078734 74.61856961 4.75 73.25 C5.81335571 73.05845337 5.81335571 73.05845337 6.89819336 72.86303711 C11.32367653 72.1260608 15.51476026 71.88258535 20 72 C20 72.33 20 72.66 20 73 C15.71 73.99 11.42 74.98 7 76 C7 76.66 7 77.32 7 78 C13.27 77.34 19.54 76.68 26 76 C26.33 56.53 26.66 37.06 27 17 C28.65 17 30.3 17 32 17 C32 40.43 32 63.86 32 88 C7.1875 88.1875 7.1875 88.1875 -0.63989258 88.20776367 C-2.68313181 88.2342029 -4.72634846 88.2624785 -6.76953125 88.29296875 C-7.83377319 88.28898071 -8.89801514 88.28499268 -9.99450684 88.28088379 C-12.75770269 88.3345221 -15.30003943 88.41105443 -18 89 C-20.20318337 91.29405866 -20.20318337 91.29405866 -21 94 C-23.63352638 96.0691993 -25.0381031 95.99930722 -28.4375 95.9375 C-32.64201235 94.83104938 -34.30077039 93.3535883 -37 90 C-37 89.34 -37 88.68 -37 88 C-53.5 88 -70 88 -87 88 C-87 64.24 -87 40.48 -87 16 C-85.02 16 -83.04 16 -81 16 C-80.67 35.8 -80.34 55.6 -80 76 C-72.08 76.99 -64.16 77.98 -56 79 C-56.33 77.68 -56.66 76.36 -57 75 C-46.99819123 76.08715313 -39.12929033 79.43535484 -30 84 C-30 61.23 -30 38.46 -30 15 C-31.32 14.67 -32.64 14.34 -34 14 C-33.01 13.67 -32.02 13.34 -31 13 C-31.495 10.525 -31.495 10.525 -32 8 C-31.29101562 8.39445313 -30.58203125 8.78890625 -29.8515625 9.1953125 C-26.97474058 10.33302718 -26.97474058 10.33302718 -24.2734375 8.8046875 C-22.83871094 7.84949219 -22.83871094 7.84949219 -21.375 6.875 C-6.63337547 -2.33396544 -6.63337547 -2.33396544 0 0 Z " fill="#E7ECFD" transform="translate(201,134)"/>
<path d="M0 0 C4.7690592 1.95497604 7.95797549 4.35032566 10.71484375 8.71484375 C12.20629708 12.52734298 12.49686334 15.90079273 12.4375 19.9375 C12.43065186 20.64680664 12.42380371 21.35611328 12.41674805 22.08691406 C12.24548442 27.63662528 11.55278463 30.77506693 8 35 C2.59043339 39.88180402 -0.93611605 41.45935286 -8.140625 41.31640625 C-13.68306911 40.70310301 -17.47320611 38.52679389 -21.375 34.625 C-25.51265653 27.9410933 -25.91654661 21.19098673 -24.5703125 13.56640625 C-22.95403468 7.65003126 -20.0416639 4.40160456 -15 1 C-10.51098096 -1.24450952 -4.8570664 -0.58418324 0 0 Z " fill="#F8F9F9" transform="translate(603,174)"/>
<path d="M0 0 C5.94 0 11.88 0 18 0 C18 22.77 18 45.54 18 69 C12.06 69 6.12 69 0 69 C0 46.23 0 23.46 0 0 Z " fill="#323843" transform="translate(448,160)"/>
<path d="M0 0 C1.65 0 3.3 0 5 0 C5 23.1 5 46.2 5 70 C-10.18 70 -25.36 70 -41 70 C-37.24711625 66.24711625 -34.00523882 65.418554 -29 64 C-28.35417969 63.814375 -27.70835937 63.62875 -27.04296875 63.4375 C-20.8074811 61.8632546 -14.4182816 61.31921372 -8.03149414 60.69702148 C-4.19806691 60.65165747 -4.19806691 60.65165747 -1 59 C-0.87662826 57.15968011 -0.82208692 55.31470589 -0.79467773 53.47045898 C-0.77473251 52.28931015 -0.75478729 51.10816132 -0.73423767 49.89122009 C-0.70916893 47.96313255 -0.70916893 47.96313255 -0.68359375 45.99609375 C-0.66281265 44.68794205 -0.64203156 43.37979034 -0.62062073 42.03199768 C-0.565337 38.54844553 -0.51595569 35.0648334 -0.46777344 31.58117676 C-0.41760426 28.0286727 -0.36189433 24.4762561 -0.30664062 20.92382812 C-0.19898209 13.94929454 -0.09755433 6.97468202 0 0 Z " fill="#5668D1" transform="translate(228,151)"/>
<path d="M0 0 C1.32 0 2.64 0 4 0 C4.01030746 0.71996658 4.02061493 1.43993317 4.03123474 2.18171692 C4.12919135 8.96500327 4.23170327 15.74820711 4.33933926 22.53134632 C4.39451576 26.0186684 4.44792726 29.50599895 4.49731445 32.9934082 C4.55416255 37.00220847 4.61867048 41.01085357 4.68359375 45.01953125 C4.70030624 46.27272659 4.71701874 47.52592194 4.73423767 48.8170929 C4.75418289 49.97806992 4.77412811 51.13904694 4.79467773 52.33520508 C4.81022202 53.35890701 4.8257663 54.38260895 4.84178162 55.43733215 C4.89715622 58.12007976 4.89715622 58.12007976 6 61 C7.299375 60.938125 8.59875 60.87625 9.9375 60.8125 C22.56702762 60.8482777 34.49620788 63.93833147 46 69 C46 69.33 46 69.66 46 70 C30.82 70 15.64 70 0 70 C0 46.9 0 23.8 0 0 Z " fill="#495CE2" transform="translate(115,151)"/>
<path d="M0 0 C1.98 0 3.96 0 6 0 C6 19.47 6 38.94 6 59 C5.67 59 5.34 59 5 59 C5 39.86 5 20.72 5 1 C3.68 1 2.36 1 1 1 C1 24.1 1 47.2 1 71 C15.52 70.67 30.04 70.34 45 70 C35.26368806 66.75456269 27.44278411 64.21683285 17.5625 63.1875 C16.53318359 63.06697266 15.50386719 62.94644531 14.44335938 62.82226562 C11.96347903 62.53390745 9.4829991 62.25985251 7 62 C7 61.67 7 61.34 7 61 C15.2056037 60.70400628 22.92437827 61.56205146 31 63 C30.67 61.68 30.34 60.36 30 59 C38.1407141 59.88486023 45.8034184 62.02294175 53 66 C53 68.31 53 70.62 53 73 C53.66 73 54.32 73 55 73 C55 73.66 55 74.32 55 75 C60.32170494 75.29562367 60.32170494 75.29562367 65 73 C65.99 73 66.98 73 68 73 C67.14382686 75.71121495 66.54750525 77.55388461 64.3125 79.375 C60.84325904 80.31263269 58.46441837 79.91168904 55 79 C52.0625 76.5625 52.0625 76.5625 50 74 C50 73.34 50 72.68 50 72 C33.5 72 17 72 0 72 C0 48.24 0 24.48 0 0 Z " fill="#B9C3F6" transform="translate(114,150)"/>
<path d="M0 0 C0.82371094 -0.01611328 1.64742187 -0.03222656 2.49609375 -0.04882812 C3.28371094 -0.04947266 4.07132813 -0.05011719 4.8828125 -0.05078125 C5.60098145 -0.05376221 6.31915039 -0.05674316 7.05908203 -0.05981445 C8.875 0.3125 8.875 0.3125 10.875 3.3125 C11.0703125 6.01171875 11.0703125 6.01171875 11 9 C10.98195312 9.99386719 10.96390625 10.98773438 10.9453125 12.01171875 C10.92210937 12.77097656 10.89890625 13.53023437 10.875 14.3125 C11.65746094 14.30089844 12.43992188 14.28929687 13.24609375 14.27734375 C14.25800781 14.26832031 15.26992187 14.25929687 16.3125 14.25 C17.32183594 14.23839844 18.33117187 14.22679687 19.37109375 14.21484375 C21.875 14.3125 21.875 14.3125 22.875 15.3125 C22.97534437 17.78622631 23.0111794 20.23204923 23.00439453 22.70629883 C23.00702301 23.86730858 23.00702301 23.86730858 23.00970459 25.05177307 C23.0141251 27.62438159 23.01118357 30.19692197 23.0078125 32.76953125 C23.00848569 34.55213942 23.00945584 36.33474749 23.01071167 38.11735535 C23.01218908 41.86087922 23.01003348 45.60437928 23.00537109 49.34790039 C22.99968614 54.14651044 23.0029447 58.9450644 23.00894356 63.74367237 C23.01255857 67.4282422 23.01140604 71.11279877 23.00881577 74.797369 C23.00814846 76.56640314 23.00896808 78.33543848 23.01129532 80.10447121 C23.01383585 82.57985238 23.00996087 85.05514314 23.00439453 87.53051758 C23.00641876 88.26262451 23.00844299 88.99473145 23.01052856 89.74902344 C22.98248797 96.48302301 22.98248797 96.48302301 21.875 99.3125 C19.41338983 100.54330509 17.81003007 100.43293977 15.05810547 100.42602539 C14.05721893 100.42594986 13.0563324 100.42587433 12.02511597 100.42579651 C10.94174957 100.42063522 9.85838318 100.41547394 8.7421875 100.41015625 C7.63521515 100.4087413 6.5282428 100.40732635 5.38772583 100.40586853 C1.84179007 100.40025772 -1.70408323 100.38770337 -5.25 100.375 C-7.64973867 100.36998639 -10.04947833 100.36542325 -12.44921875 100.36132812 C-18.34116725 100.35028478 -24.23307916 100.3335361 -30.125 100.3125 C-29.795 101.3025 -29.465 102.2925 -29.125 103.3125 C-30.21783577 104.34545436 -31.32470579 105.36357835 -32.4375 106.375 C-33.05238281 106.94347656 -33.66726562 107.51195312 -34.30078125 108.09765625 C-34.90277344 108.49855469 -35.50476563 108.89945312 -36.125 109.3125 C-37.115 108.9825 -38.105 108.6525 -39.125 108.3125 C-40.68618428 108.24509135 -42.2500252 108.22735544 -43.8125 108.25 C-44.62074219 108.25902344 -45.42898437 108.26804687 -46.26171875 108.27734375 C-46.87660156 108.28894531 -47.49148437 108.30054688 -48.125 108.3125 C-48.125 107.9825 -48.125 107.6525 -48.125 107.3125 C-47.47273437 107.22613281 -46.82046875 107.13976562 -46.1484375 107.05078125 C-39.98159189 106.05935622 -36.50490323 104.80470844 -32.125 100.3125 C-31.795 99.6525 -31.465 98.9925 -31.125 98.3125 C-5.88 97.8175 -5.88 97.8175 19.875 97.3125 C19.875 70.9125 19.875 44.5125 19.875 17.3125 C16.245 16.9825 12.615 16.6525 8.875 16.3125 C8.545 11.6925 8.215 7.0725 7.875 2.3125 C0.945 2.3125 -5.985 2.3125 -13.125 2.3125 C-8.38190747 -0.05904627 -5.18049061 -0.02046007 0 0 Z " fill="#586BD5" transform="translate(218.125,128.6875)"/>
<path d="M0 0 C2.82424288 2.19022918 4.41508603 3.83017207 6 7 C6.2262475 12.0069555 5.69507747 15.16929766 2.4375 19.0625 C-2.03699068 21.58448566 -3.93088294 21.72415958 -9 21 C-12.27981751 18.93228896 -13.84746007 17.22880989 -16 14 C-16.67226891 7.05322129 -16.67226891 7.05322129 -14.125 3.0625 C-10.0317096 -0.9103995 -5.47565053 -0.79207523 0 0 Z " fill="#333944" transform="translate(462,125)"/>
<path d="M0 0 C0.66 0 1.32 0 2 0 C2 22.11 2 44.22 2 67 C-9.88 67 -21.76 67 -34 67 C-31 65 -31 65 -28 65 C-28 64.34 -28 63.68 -28 63 C-21 61 -21 61 -1 61 C-0.67 40.87 -0.34 20.74 0 0 Z " fill="#465EEF" transform="translate(229,152)"/>
<path d="M0 0 C1.7715873 -0.00021904 1.7715873 -0.00021904 3.57896423 -0.0004425 C6.80373021 0.00013322 10.02845232 0.00513543 13.25320959 0.01213145 C16.62845003 0.01839881 20.00369141 0.01897146 23.37893677 0.02015686 C29.76424411 0.02326022 36.14953425 0.03146016 42.53483403 0.04150635 C49.80690013 0.05269843 57.07896707 0.05818573 64.35103965 0.06320179 C79.30451126 0.07364363 94.2579668 0.09122375 109.21142578 0.11352539 C109.21142578 0.77352539 109.21142578 1.43352539 109.21142578 2.11352539 C108.59004478 2.11591374 107.96866379 2.1183021 107.32845306 2.12076283 C92.18733296 2.17997832 77.04638995 2.25557008 61.90544891 2.3492403 C54.58330223 2.39414697 47.26120362 2.43357333 39.93896484 2.45996094 C33.55460328 2.48298271 27.17039453 2.51642709 20.78615427 2.56222695 C17.40780297 2.58610316 14.02960248 2.60486847 10.65116882 2.6111393 C6.87350032 2.62077501 3.09638082 2.64882997 -0.68115234 2.68115234 C-1.79318024 2.67971725 -2.90520813 2.67828217 -4.05093384 2.67680359 C-13.18171194 2.78714612 -19.30328279 4.94510988 -26.78857422 10.11352539 C-27.44857422 10.11352539 -28.10857422 10.11352539 -28.78857422 10.11352539 C-29.11857422 11.10352539 -29.44857422 12.09352539 -29.78857422 13.11352539 C-30.11857422 12.12352539 -30.44857422 11.13352539 -30.78857422 10.11352539 C-28.42860497 7.33709098 -25.65894828 5.79932175 -22.50732422 4.07836914 C-20.8874787 3.16904677 -19.33421076 2.14394975 -17.78857422 1.11352539 C-11.97674972 -0.35182442 -5.95209846 -0.01928107 0 0 Z " fill="#6D87F8" transform="translate(124.78857421875,96.886474609375)"/>
<path d="M0 0 C0 23.1 0 46.2 0 70 C-8.25 71.32 -16.5 72.64 -25 74 C-28.63 75.32 -32.26 76.64 -36 78 C-36.33 77.01 -36.66 76.02 -37 75 C-35.19402344 74.49339844 -35.19402344 74.49339844 -33.3515625 73.9765625 C-31.77594336 73.5263856 -30.20042784 73.07584591 -28.625 72.625 C-27.8309375 72.40328125 -27.036875 72.1815625 -26.21875 71.953125 C-25.45820313 71.73398438 -24.69765625 71.51484375 -23.9140625 71.2890625 C-23.2123291 71.09006348 -22.5105957 70.89106445 -21.78759766 70.68603516 C-19.78554467 70.05674973 -19.78554467 70.05674973 -18 68 C-12.72 68.33 -7.44 68.66 -2 69 C-2 46.89 -2 24.78 -2 2 C-14.11544321 2.9059046 -14.11544321 2.9059046 -25 7 C-27.48046875 7.4140625 -27.48046875 7.4140625 -30.1875 7.625 C-31.08855469 7.69976562 -31.98960937 7.77453125 -32.91796875 7.8515625 C-33.60503906 7.90054688 -34.29210937 7.94953125 -35 8 C-25.1274846 1.41832306 -11.5257589 0 0 0 Z " fill="#697DDE" transform="translate(222,136)"/>
<path d="M0 0 C2.39606429 2.39606429 2.25073245 2.90247869 2.25396729 6.16615295 C2.25960693 7.03938202 2.26524658 7.91261108 2.27105713 8.81230164 C2.26700867 9.77279922 2.26296021 10.73329681 2.25878906 11.72290039 C2.2622937 12.73286072 2.26579834 13.74282104 2.26940918 14.78338623 C2.27824482 18.1382119 2.27236778 21.49282824 2.265625 24.84765625 C2.26697186 27.17736349 2.26891257 29.50707046 2.27142334 31.83677673 C2.27437769 36.73032292 2.27006969 41.62379625 2.26074219 46.51733398 C2.24939167 52.77612956 2.2558772 59.03475277 2.26788712 65.29354191 C2.27513508 70.1106647 2.27280354 74.92774709 2.26763153 79.74487114 C2.26630085 82.05124367 2.26792229 84.35761992 2.27259064 86.66398811 C2.27769912 89.89986916 2.26988301 93.13547704 2.25878906 96.37133789 C2.26283752 97.31766586 2.26688599 98.26399384 2.27105713 99.23899841 C2.23559905 104.85334163 2.12515717 110.72548797 0 116 C-1.485 116.99 -1.485 116.99 -3 118 C-2.85932413 117.40631433 -2.71864826 116.81262867 -2.57370949 116.20095253 C-1.14329693 109.71668918 -0.69585055 103.57741596 -0.68115234 96.95068359 C-0.67110672 95.89583771 -0.6610611 94.84099182 -0.65071106 93.75418091 C-0.62006714 90.30227148 -0.60289641 86.85043893 -0.5859375 83.3984375 C-0.56721073 80.99133654 -0.54763621 78.58424204 -0.5272522 76.17715454 C-0.47608452 69.86769431 -0.43637673 63.55821283 -0.39910889 57.24865723 C-0.35897266 50.79983327 -0.30792432 44.35109654 -0.2578125 37.90234375 C-0.16123522 25.26829166 -0.07640144 12.6341894 0 0 Z " fill="#768FF8" transform="translate(261,128)"/>
<path d="M0 0 C0 22.77 0 45.54 0 69 C-5.61 69 -11.22 69 -17 69 C-17 46.56 -17 24.12 -17 1 C-16.67 1 -16.34 1 -16 1 C-16 23.11 -16 45.22 -16 68 C-11.38 68 -6.76 68 -2 68 C-2 46.22 -2 24.44 -2 2 C-3.32 1.67 -4.64 1.34 -6 1 C-3.92446352 0.4465236 -2.15634036 0 0 0 Z " fill="#272D36" transform="translate(466,160)"/>
<path d="M0 0 C7.68049689 0.34135542 10.34292235 2.82341219 18 7 C18 29.77 18 52.54 18 76 C12.31454616 74.10484872 8.11996715 72.55998358 3 70 C0.68222949 69.23683166 -1.63623601 68.61457864 -4 68 C0.20823034 66.55282577 2.61941959 67.78039814 6.5859375 69.40625 C9.63601562 70.15643103 11.94077421 69.5767178 15 69 C15.04632731 61.35919871 15.08187121 53.71841197 15.10362434 46.07750225 C15.11406444 42.52956369 15.12822763 38.98172117 15.15087891 35.43383789 C15.17675331 31.35562209 15.1864709 27.27750729 15.1953125 23.19921875 C15.21079636 21.28661507 15.21079636 21.28661507 15.22659302 19.33537292 C15.22674408 18.15437515 15.22689514 16.97337738 15.22705078 15.7565918 C15.231492 14.71512497 15.23593323 13.67365814 15.24050903 12.60063171 C15.18611643 9.76380989 15.18611643 9.76380989 13 7 C11.05167065 5.99831469 11.05167065 5.99831469 8.875 5.3125 C8.15054688 5.06113281 7.42609375 4.80976563 6.6796875 4.55078125 C6.12539062 4.36902344 5.57109375 4.18726563 5 4 C5 3.34 5 2.68 5 2 C3.35 1.67 1.7 1.34 0 1 C0 0.67 0 0.34 0 0 Z " fill="#6375D1" transform="translate(153,142)"/>
<path d="M0 0 C0.33 0 0.66 0 1 0 C1.00146656 0.57554217 1.00293312 1.15108435 1.00444412 1.74406719 C1.04163004 15.80208866 1.10079938 29.85987732 1.18390274 43.91770458 C1.22357209 50.71621745 1.25602556 57.51461659 1.27099609 64.31323242 C1.28548047 70.88158792 1.32072958 77.44964693 1.36830902 84.01784706 C1.38307795 86.5162581 1.39103842 89.01471951 1.39188385 91.51317406 C0.33985109 111.56675241 0.33985109 111.56675241 8.06011963 129.14762878 C8.70028015 129.75891129 9.34044067 130.37019379 10 131 C11.25 133.75 11.25 133.75 12 136 C12.99 136 13.98 136 15 136 C15 137.32 15 138.64 15 140 C16.32 140.66 17.64 141.32 19 142 C18.34 142.33 17.68 142.66 17 143 C8.21373776 135.82709609 1.89716559 128.5062959 0 117 C-0.08460364 115.32063688 -0.12206063 113.63844686 -0.12025452 111.95695496 C-0.12231651 110.46996094 -0.12231651 110.46996094 -0.12442017 108.95292664 C-0.12082489 107.87686661 -0.11722961 106.80080658 -0.11352539 105.69213867 C-0.11367142 104.55024078 -0.11381744 103.4083429 -0.1139679 102.23184204 C-0.11327168 98.46053157 -0.10549285 94.68927059 -0.09765625 90.91796875 C-0.09579104 88.30194628 -0.09436762 85.68592346 -0.09336853 83.06990051 C-0.09026356 76.88997222 -0.08206141 70.71006167 -0.07201904 64.53014117 C-0.060832 57.49267671 -0.05534093 50.45521138 -0.05032361 43.41774023 C-0.0398781 28.94515101 -0.02229481 14.47257575 0 0 Z " fill="#8194D2" transform="translate(76,126)"/>
<path d="M0 0 C1.32 0.33 2.64 0.66 4 1 C3.01 1.33 2.02 1.66 1 2 C1 23.78 1 45.56 1 68 C12.88 68 24.76 68 37 68 C37 67.34 37 66.68 37 66 C39.97 66.99 42.94 67.98 46 69 C46 69.33 46 69.66 46 70 C30.82 70 15.64 70 0 70 C0 46.9 0 23.8 0 0 Z " fill="#5668D7" transform="translate(115,151)"/>
<path d="M0 0 C0.33 0.66 0.66 1.32 1 2 C3.04390839 2.53097947 3.04390839 2.53097947 5.5234375 2.78125 C6.45784668 2.90008545 7.39225586 3.0189209 8.35498047 3.14135742 C9.35158691 3.25970947 10.34819336 3.37806152 11.375 3.5 C13.38564801 3.75469072 15.39606878 4.01118222 17.40625 4.26953125 C18.85644531 4.45443115 18.85644531 4.45443115 20.3359375 4.64306641 C24.92283239 5.25762289 29.46588959 6.0779919 34 7 C34 7.66 34 8.32 34 9 C22.12 9 10.24 9 -2 9 C-2 2 -2 2 0 0 Z " fill="#4760F2" transform="translate(118,210)"/>
<path d="M0 0 C5.72136065 6.76160805 5.27856877 14.01034247 5.22705078 22.43115234 C5.22734283 23.68048553 5.22763489 24.92981873 5.22793579 26.2170105 C5.2267839 29.62986523 5.21677611 33.0424759 5.20278788 36.45528746 C5.19025755 40.026713 5.18910821 43.59814205 5.18673706 47.16958618 C5.18052905 53.9267841 5.16412744 60.68391706 5.14403808 67.44108641 C5.12165793 75.13635414 5.11068034 82.83162503 5.10064721 90.52691722 C5.07976059 106.35131573 5.04459785 122.17564948 5 138 C4.67 138 4.34 138 4 138 C3.99365209 137.10299897 3.99365209 137.10299897 3.98717594 136.1878767 C3.88359915 121.59656492 3.77492266 107.00529718 3.66066074 92.41406536 C3.60552452 85.35768386 3.55207619 78.3012973 3.50268555 71.24487305 C3.45498255 64.43025461 3.40246452 57.61568659 3.34705925 50.80112648 C3.32673844 48.20614627 3.3080091 45.61115307 3.29092598 43.01614952 C3.26665303 39.37098902 3.23663178 35.72591649 3.20532227 32.08081055 C3.1995668 31.01697144 3.19381134 29.95313232 3.18788147 28.85705566 C3.42232843 17.42330677 3.42232843 17.42330677 0.96173954 6.43390942 C0 4 0 4 0 0 Z " fill="#7E90CF" transform="translate(266,108)"/>
<path d="M0 0 C0.495 1.485 0.495 1.485 1 3 C-1.46161017 4.23080509 -3.06496993 4.12043977 -5.81689453 4.11352539 C-6.81778107 4.11344986 -7.8186676 4.11337433 -8.84988403 4.11329651 C-9.93325043 4.10813522 -11.01661682 4.10297394 -12.1328125 4.09765625 C-13.23978485 4.0962413 -14.3467572 4.09482635 -15.48727417 4.09336853 C-19.03320993 4.08775772 -22.57908323 4.07520337 -26.125 4.0625 C-28.52473867 4.05748639 -30.92447833 4.05292325 -33.32421875 4.04882812 C-39.21616725 4.03778478 -45.10807916 4.0210361 -51 4 C-50.67 4.99 -50.34 5.98 -50 7 C-51.09283577 8.03295436 -52.19970579 9.05107835 -53.3125 10.0625 C-53.92738281 10.63097656 -54.54226562 11.19945312 -55.17578125 11.78515625 C-55.77777344 12.18605469 -56.37976563 12.58695313 -57 13 C-57.99 12.67 -58.98 12.34 -60 12 C-61.56118428 11.93259135 -63.1250252 11.91485544 -64.6875 11.9375 C-65.49574219 11.94652344 -66.30398437 11.95554688 -67.13671875 11.96484375 C-67.75160156 11.97644531 -68.36648437 11.98804688 -69 12 C-69 11.67 -69 11.34 -69 11 C-68.34773437 10.91363281 -67.69546875 10.82726562 -67.0234375 10.73828125 C-60.85659189 9.74685622 -57.37990323 8.49220844 -53 4 C-52.67 3.34 -52.34 2.68 -52 2 C-51.36328873 1.98969254 -50.72657745 1.97938507 -50.0705719 1.96876526 C-43.46873202 1.86093669 -36.86703522 1.74632039 -30.26538086 1.62768555 C-27.79861431 1.58426057 -25.33181622 1.54259128 -22.86499023 1.50268555 C-19.32786534 1.44516555 -15.79090034 1.38141925 -12.25390625 1.31640625 C-11.14350479 1.29969376 -10.03310333 1.28298126 -8.88905334 1.26576233 C-7.86807053 1.24581711 -6.84708771 1.22587189 -5.79516602 1.20532227 C-4.43948265 1.18200584 -4.43948265 1.18200584 -3.05641174 1.15821838 C-1.00805899 1.22498543 -1.00805899 1.22498543 0 0 Z " fill="#3E55C8" transform="translate(239,225)"/>
<path d="M0 0 C-0.6875 1.9375 -0.6875 1.9375 -2 4 C-4.625 4.75 -4.625 4.75 -7 5 C-8.092928 8.278784 -8.15783872 10.76284411 -8.20532227 14.21557617 C-8.22526749 15.4966777 -8.24521271 16.77777924 -8.26576233 18.09770203 C-8.2827454 19.49612304 -8.29962425 20.89454531 -8.31640625 22.29296875 C-8.33698166 23.7235829 -8.35797829 25.15419105 -8.37937927 26.58479309 C-8.43453933 30.34780006 -8.48397529 34.11086135 -8.53222656 37.8739624 C-8.58248593 41.71485216 -8.63814883 45.55566316 -8.69335938 49.39648438 C-8.80086673 56.93092287 -8.90232811 64.46542691 -9 72 C-8.34 72.33 -7.68 72.66 -7 73 C-8.485 73.495 -8.485 73.495 -10 74 C-10.1856213 65.23781184 -10.32763441 56.4763034 -10.41449738 47.71257591 C-10.45619523 43.64279971 -10.5127162 39.57437144 -10.60351562 35.50537109 C-10.69064742 31.57599346 -10.73831479 27.64790924 -10.75901794 23.71763992 C-10.77376429 22.22078716 -10.80256391 20.72400279 -10.84584045 19.22770309 C-11.17090817 7.51930399 -11.17090817 7.51930399 -8.23608398 3.71124268 C-5.59179088 1.65748446 -3.41816901 0 0 0 Z " fill="#5B6BD9" transform="translate(187,144)"/>
<path d="M0 0 C24.23295455 -0.51136364 24.23295455 -0.51136364 31 4 C29.91203125 3.86722656 28.8240625 3.73445312 27.703125 3.59765625 C19.14322677 2.56488486 10.59925922 1.6531083 2 1 C1.67 5.95 1.34 10.9 1 16 C-2.3 16 -5.6 16 -9 16 C-7 14 -7 14 -3.875 13.875 C-2.92625 13.91625 -1.9775 13.9575 -1 14 C-1.01160156 13.15695313 -1.02320312 12.31390625 -1.03515625 11.4453125 C-1.04417969 10.34960938 -1.05320312 9.25390625 -1.0625 8.125 C-1.07410156 7.03445312 -1.08570312 5.94390625 -1.09765625 4.8203125 C-1 2 -1 2 0 0 Z " fill="#5B6CD8" transform="translate(119,129)"/>
<path d="M0 0 C0.33 0 0.66 0 1 0 C1 19.8 1 39.6 1 60 C2.98 60.66 4.96 61.32 7 62 C4.35261084 63.4606285 3.10551666 64 0 64 C0 42.88 0 21.76 0 0 Z " fill="#475EE9" transform="translate(178,152)"/>
<path d="M0 0 C0 0.33 0 0.66 0 1 C-4.29 1.99 -8.58 2.98 -13 4 C-13 4.66 -13 5.32 -13 6 C-11.88625 5.835 -10.7725 5.67 -9.625 5.5 C-4.74489662 4.87905495 0.08861948 4.90942126 5 5 C5 5.33 5 5.66 5 6 C-7.87 6.99 -7.87 6.99 -21 8 C-20.34 6.02 -19.68 4.04 -19 2 C-12.6221448 0.82706111 -6.49678438 -0.29530838 0 0 Z " fill="#D6DDFC" transform="translate(221,206)"/>
<path d="M0 0 C-6.70814719 3.62958483 -12.15569404 4.55719527 -19.72265625 4.390625 C-20.70874374 4.38496521 -21.69483124 4.37930542 -22.71080017 4.37347412 C-25.82854899 4.35126734 -28.94510461 4.30110089 -32.0625 4.25 C-34.18943641 4.2299147 -36.31639101 4.2116675 -38.44335938 4.1953125 C-43.62935878 4.15145409 -48.81447782 4.08253662 -54 4 C-54 3.67 -54 3.34 -54 3 C-52.32212402 2.97812622 -52.32212402 2.97812622 -50.61035156 2.95581055 C-46.40545869 2.89723331 -42.2010686 2.82001189 -37.99658203 2.73754883 C-36.18709558 2.70457596 -34.3775131 2.67646089 -32.56787109 2.65356445 C-23.13739539 2.53105689 -14.28627391 2.41015309 -5.20605469 -0.46557617 C-3 -1 -3 -1 0 0 Z " fill="#4862EB" transform="translate(246,260)"/>
<path d="M0 0 C0.33 0 0.66 0 1 0 C1 2.64 1 5.28 1 8 C-13.19 8 -27.38 8 -42 8 C-38.96079826 4.96079826 -38.26589018 4.55734163 -34.3125 3.8125 C-33.50425781 3.65394531 -32.69601563 3.49539062 -31.86328125 3.33203125 C-30.94095703 3.16767578 -30.94095703 3.16767578 -30 3 C-30 3.66 -30 4.32 -30 5 C-30.99 5.33 -31.98 5.66 -33 6 C-16.665 6.495 -16.665 6.495 0 7 C0 4.69 0 2.38 0 0 Z " fill="#4F63D9" transform="translate(231,212)"/>
<path d="M0 0 C1.32 0 2.64 0 4 0 C4 0.66 4 1.32 4 2 C9.32170494 2.29562367 9.32170494 2.29562367 14 0 C14.99 0 15.98 0 17 0 C16.14382686 2.71121495 15.54750525 4.55388461 13.3125 6.375 C9.8903613 7.29990235 7.41865815 6.85466454 4 6 C1.5625 4.0625 1.5625 4.0625 0 2 C0 1.34 0 0.68 0 0 Z " fill="#5C6ED2" transform="translate(165,223)"/>
<path d="M0 0 C2.3828125 0.0234375 2.3828125 0.0234375 5.125 0.375 C6.03507812 0.48585937 6.94515625 0.59671875 7.8828125 0.7109375 C8.58148438 0.80632812 9.28015625 0.90171875 10 1 C10 1.66 10 2.32 10 3 C8.90042969 3.17015625 7.80085938 3.3403125 6.66796875 3.515625 C-1.92680425 4.90413865 -9.9381509 6.56979639 -18 10 C-18.33 9.01 -18.66 8.02 -19 7 C-17.79601562 6.66226563 -16.59203125 6.32453125 -15.3515625 5.9765625 C-13.77594336 5.5263856 -12.20042784 5.07584591 -10.625 4.625 C-9.8309375 4.40328125 -9.036875 4.1815625 -8.21875 3.953125 C-7.45820313 3.73398438 -6.69765625 3.51484375 -5.9140625 3.2890625 C-5.2123291 3.09006348 -4.5105957 2.89106445 -3.78759766 2.68603516 C-1.78554467 2.05674973 -1.78554467 2.05674973 0 0 Z " fill="#5467D5" transform="translate(204,204)"/>
<path d="M0 0 C0.66 0 1.32 0 2 0 C2.24234375 0.89203125 2.4846875 1.7840625 2.734375 2.703125 C3.06953125 3.87359375 3.4046875 5.0440625 3.75 6.25 C4.07484375 7.41015625 4.3996875 8.5703125 4.734375 9.765625 C6.04987525 13.12745898 7.36243052 14.61767918 10 17 C11.25 19.75 11.25 19.75 12 22 C12.99 22 13.98 22 15 22 C15 23.32 15 24.64 15 26 C16.32 26.66 17.64 27.32 19 28 C18.34 28.33 17.68 28.66 17 29 C8.53797129 22.09179294 1.76540802 14.86731854 0.3125 3.5625 C0.209375 2.386875 0.10625 1.21125 0 0 Z " fill="#8699DA" transform="translate(76,240)"/>
<path d="M0 0 C1.65 0 3.3 0 5 0 C0.43074753 6.13241779 -3.98897727 9.04617567 -11 12 C-12.03125 12.45375 -13.0625 12.9075 -14.125 13.375 C-18.03158709 14.22425806 -21.06827613 13.67788343 -25 13 C-25 12.67 -25 12.34 -25 12 C-24.35933594 11.95101563 -23.71867188 11.90203125 -23.05859375 11.8515625 C-17.81811158 11.39858491 -12.93087778 10.88842128 -8 9 C-7.67 8.01 -7.34 7.02 -7 6 C-5.35 6 -3.7 6 -2 6 C-1.34 4.02 -0.68 2.04 0 0 Z " fill="#8395D8" transform="translate(257,261)"/>
<path d="M0 0 C1.96066406 -0.03867188 1.96066406 -0.03867188 3.9609375 -0.078125 C7.74627454 0.26086041 9.59844322 1.02974599 12.625 3.25 C10.645 4.24 10.645 4.24 8.625 5.25 C7.965 4.59 7.305 3.93 6.625 3.25 C3.8968044 2.96768617 3.8968044 2.96768617 0.8125 3.0625 C-0.22519531 3.06894531 -1.26289062 3.07539063 -2.33203125 3.08203125 C-5.11606653 3.23570714 -7.66298637 3.62337948 -10.375 4.25 C-10.375 3.26 -10.375 2.27 -10.375 1.25 C-6.78498391 0.05332797 -3.7845161 0.04461119 0 0 Z " fill="#454A51" transform="translate(523.375,157.75)"/>
<path d="M0 0 C2.31 0.33 4.62 0.66 7 1 C5.68 1.99 4.36 2.98 3 4 C3.33 4.66 3.66 5.32 4 6 C2.33324219 5.80083984 2.33324219 5.80083984 0.6328125 5.59765625 C-7.23898684 4.66156951 -15.10796854 3.75162204 -23 3 C-23 2.67 -23 2.34 -23 2 C-14.7943963 1.70400628 -7.07562173 2.56205146 1 4 C0.67 2.68 0.34 1.36 0 0 Z " fill="#C6D0FA" transform="translate(144,209)"/>
<path d="M0 0 C1.8871875 0.061875 1.8871875 0.061875 3.8125 0.125 C1.34901202 1.76732532 -0.28207499 2.5886642 -3 3.5 C-5.79249296 4.50282896 -8.12614105 5.6184224 -10.5625 7.3125 C-13.1875 9.125 -13.1875 9.125 -15.1875 9.125 C-15.5175 10.115 -15.8475 11.105 -16.1875 12.125 C-16.5175 11.135 -16.8475 10.145 -17.1875 9.125 C-14.82753075 6.34856559 -12.05787406 4.81079636 -8.90625 3.08984375 C-3.2143389 -0.10538816 -3.2143389 -0.10538816 0 0 Z " fill="#6D88F8" transform="translate(111.1875,97.875)"/>
<path d="M0 0 C7.44730392 0.75735294 7.44730392 0.75735294 10.5625 2.125 C13.93152743 3.33439446 16.54279853 2.67788264 20 2 C20 3.98 20 5.96 20 8 C15.28649288 6.77448815 11.37005777 5.18502889 7 3 C4.6824196 2.2352923 2.36409861 1.61466564 0 1 C0 0.67 0 0.34 0 0 Z " fill="#5D71DC" transform="translate(149,209)"/>
<path d="M0 0 C-3.53796748 2.37997089 -6.98709937 4.5260928 -11 6 C-14.20097564 5.31173561 -15.4382924 4.16321975 -18 2 C-16.3125 0.875 -16.3125 0.875 -14 0 C-11.4375 0.875 -11.4375 0.875 -9 2 C-8.01 2 -7.02 2 -6 2 C-6 1.34 -6 0.68 -6 0 C-3 -1 -3 -1 0 0 Z " fill="#5667D9" transform="translate(184,139)"/>
<path d="M0 0 C5.59085785 0.58851135 11.06222629 2.30328743 16 5 C16.33 5.99 16.66 6.98 17 8 C19.00016466 9.20882096 19.00016466 9.20882096 21 10 C17.40142046 10 15.90548882 9.04169485 13 7 C13 6.34 13 5.68 13 5 C12.39671875 4.87882812 11.7934375 4.75765625 11.171875 4.6328125 C10.37265625 4.46523437 9.5734375 4.29765625 8.75 4.125 C7.96109375 3.96257812 7.1721875 3.80015625 6.359375 3.6328125 C4.03168856 3.00849925 2.10968048 2.15161458 0 1 C0 0.67 0 0.34 0 0 Z " fill="#4D66EA" transform="translate(232,99)"/>
<path d="M0 0 C-3.21705553 0.99656156 -6.43526428 1.98885518 -9.65625 2.97265625 C-11.53552985 3.55005181 -13.41266766 4.13496494 -15.28125 4.74609375 C-18.64900249 5.81697996 -20.63931133 6.00459296 -24 5 C-21.41710408 4.18608745 -18.83371003 3.37382071 -16.25 2.5625 C-15.52039063 2.33240234 -14.79078125 2.10230469 -14.0390625 1.86523438 C-13.33007812 1.64287109 -12.62109375 1.42050781 -11.890625 1.19140625 C-11.24125977 0.98717041 -10.59189453 0.78293457 -9.92285156 0.57250977 C-6.16106654 -0.54752399 -3.82672193 -1.23001776 0 0 Z " fill="#5D6FD6" transform="translate(211,138)"/>
<path d="M0 0 C4.673458 5.52317764 5.46671847 10.99922288 5 18 C4.34 18.66 3.68 19.32 3 20 C2.92652344 18.89591797 2.92652344 18.89591797 2.8515625 17.76953125 C2.77679688 16.79371094 2.70203125 15.81789063 2.625 14.8125 C2.55539062 13.84957031 2.48578125 12.88664062 2.4140625 11.89453125 C1.99648509 8.97542882 1.09526831 6.72036153 0 4 C0 2.68 0 1.36 0 0 Z " fill="#8699D4" transform="translate(266,108)"/>
<path d="M0 0 C0.66 0 1.32 0 2 0 C0.78184562 4.68520915 -0.69559987 8.70543612 -3 13 C-3.66 13 -4.32 13 -5 13 C-5.33 13.66 -5.66 14.32 -6 15 C-6 14.01 -6 13.02 -6 12 C-5.34 12 -4.68 12 -4 12 C-3.67 9.03 -3.34 6.06 -3 3 C-2.34 3 -1.68 3 -1 3 C-0.67 2.01 -0.34 1.02 0 0 Z " fill="#8B9ADA" transform="translate(268,246)"/>
<path d="M0 0 C4.97451719 -0.28699138 7.15416301 -0.0766696 11 3 C13.66761764 3.25124826 13.66761764 3.25124826 16 3 C15.67 4.32 15.34 5.64 15 7 C7.5 4 7.5 4 0 1 C0 0.67 0 0.34 0 0 Z " fill="#5970E1" transform="translate(151,133)"/>
<path d="M0 0 C4.73670588 2.44012121 8.67716389 5.84645486 12 10 C12.703125 12.22265625 12.703125 12.22265625 13 14 C12.34 14 11.68 14 11 14 C10.67 12.68 10.34 11.36 10 10 C9.34 10 8.68 10 8 10 C6.62150897 8.71340837 5.29470975 7.37086915 4 6 C3.2575 5.29875 2.515 4.5975 1.75 3.875 C0 2 0 2 0 0 Z " fill="#8094D6" transform="translate(253,94)"/>
<path d="M0 0 C0.33 0.66 0.66 1.32 1 2 C-0.94284341 6.74917278 -3.49185746 10.32072856 -7 14 C-9.3125 14.875 -9.3125 14.875 -11 15 C-9.75040121 11.25120362 -7.79032462 9.79032462 -5 7 C-3.24813693 4.71640613 -1.6296307 2.37460474 0 0 Z " fill="#5068ED" transform="translate(257,244)"/>
<path d="M0 0 C-1.98 0.99 -1.98 0.99 -4 2 C-4 2.99 -4 3.98 -4 5 C-7.3 5 -10.6 5 -14 5 C-11 3 -11 3 -8 3 C-8 2.34 -8 1.68 -8 1 C-5.07175348 0.02391783 -3.04386724 -0.08226668 0 0 Z " fill="#435FE1" transform="translate(209,214)"/>
<path d="M0 0 C1.32 0 2.64 0 4 0 C4 0.66 4 1.32 4 2 C4.99 2.33 5.98 2.66 7 3 C7.33 3.66 7.66 4.32 8 5 C8.99 5.66 9.98 6.32 11 7 C4.64285714 6.51098901 4.64285714 6.51098901 1.5625 4.0625 C0 2 0 2 0 0 Z " fill="#6B7CD2" transform="translate(165,223)"/>
<path d="M0 0 C2.3828125 0.0234375 2.3828125 0.0234375 5.125 0.375 C6.03507813 0.48585937 6.94515625 0.59671875 7.8828125 0.7109375 C8.93082031 0.85402344 8.93082031 0.85402344 10 1 C10 1.66 10 2.32 10 3 C8.56465159 3.2226746 7.12654475 3.42761906 5.6875 3.625 C4.88699219 3.74101562 4.08648437 3.85703125 3.26171875 3.9765625 C1 4 1 4 -2 2 C-1.34 1.34 -0.68 0.68 0 0 Z " fill="#576CE3" transform="translate(204,204)"/>
<path d="M0 0 C0.33 0 0.66 0 1 0 C1 3.96 1 7.92 1 12 C2.98 12.66 4.96 13.32 7 14 C4.35261084 15.4606285 3.10551666 16 0 16 C0 10.72 0 5.44 0 0 Z " fill="#5165E5" transform="translate(178,200)"/>
<path d="M0 0 C0.66 0 1.32 0 2 0 C3.06723961 3.46222615 3.10173486 6.64039266 3.0625 10.25 C3.05347656 11.32765625 3.04445313 12.4053125 3.03515625 13.515625 C3.02355469 14.33546875 3.01195312 15.1553125 3 16 C2.67 16 2.34 16 2 16 C2 13.03 2 10.06 2 7 C1.34 7 0.68 7 0 7 C0 4.69 0 2.38 0 0 Z " fill="#65686E" transform="translate(631,184)"/>
<path d="M0 0 C6.16456078 0.38528505 9.98627748 2.47086025 15 6 C13 7 13 7 11.0546875 6.44140625 C9.97574219 6.00634766 9.97574219 6.00634766 8.875 5.5625 C8.15054688 5.27503906 7.42609375 4.98757812 6.6796875 4.69140625 C6.12539062 4.46324219 5.57109375 4.23507813 5 4 C5 3.34 5 2.68 5 2 C3.35 1.67 1.7 1.34 0 1 C0 0.67 0 0.34 0 0 Z " fill="#5363D6" transform="translate(153,142)"/>
<path d="M0 0 C1.258125 -0.04125 2.51625 -0.0825 3.8125 -0.125 C4.52019531 -0.14820312 5.22789062 -0.17140625 5.95703125 -0.1953125 C8 0 8 0 11 2 C11 2.66 11 3.32 11 4 C11.66 4 12.32 4 13 4 C12.67 4.66 12.34 5.32 12 6 C8.04 4.35 4.08 2.7 0 1 C0 0.67 0 0.34 0 0 Z " fill="#6D88F6" transform="translate(236,99)"/>
<path d="M0 0 C0 0.99 0 1.98 0 3 C-4.62 3.33 -9.24 3.66 -14 4 C-11.60191881 1.60191881 -10.28795597 1.47715473 -7 0.875 C-5.6696875 0.62363281 -5.6696875 0.62363281 -4.3125 0.3671875 C-2 0 -2 0 0 0 Z " fill="#8496DA" transform="translate(112,88)"/>
<path d="M0 0 C0.66 0.33 1.32 0.66 2 1 C1.34 2.65 0.68 4.3 0 6 C-2.31 6 -4.62 6 -7 6 C-4.74259377 3.66475218 -2.7194239 1.81294927 0 0 Z " fill="#8598DB" transform="translate(96,92)"/>
<path d="M0 0 C0.66 0.33 1.32 0.66 2 1 C1.6875 4.375 1.6875 4.375 1 8 C0.01 8.66 -0.98 9.32 -2 10 C-1.34 6.7 -0.68 3.4 0 0 Z " fill="#6D8AF6" transform="translate(260,236)"/>
<path d="M0 0 C0.99 0.33 1.98 0.66 3 1 C-0.465 3.97 -0.465 3.97 -4 7 C-4.66 6.67 -5.32 6.34 -6 6 C-4.02 4.02 -2.04 2.04 0 0 Z " fill="#3D4249" transform="translate(573,165)"/>
<path d="M0 0 C3.375 -0.1875 3.375 -0.1875 7 0 C7.66 0.99 8.32 1.98 9 3 C2.25 2.25 2.25 2.25 0 0 Z " fill="#5466DB" transform="translate(151,133)"/>
</svg>
