<?xml version="1.0" encoding="UTF-8"?>
<svg version="1.1" xmlns="http://www.w3.org/2000/svg" width="201" height="195">
<path d="M0 0 C66.33 0 132.66 0 201 0 C201 64.35 201 128.7 201 195 C134.67 195 68.34 195 0 195 C0 130.65 0 66.3 0 0 Z " fill="#475FF7" transform="translate(0,0)"/>
<path d="M0 0 C12.94671884 0.1179357 24.74176745 3.97283566 36.8125 8.25 C36.8125 8.91 36.8125 9.57 36.8125 10.25 C38.17375 10.683125 38.17375 10.683125 39.5625 11.125 C42.8125 12.25 42.8125 12.25 44.68359375 13.51171875 C46.9044477 14.55861958 46.9044477 14.55861958 49.30078125 13.08984375 C50.23277344 12.46207031 51.16476563 11.83429687 52.125 11.1875 C65.97679461 2.62702353 82.58474303 -0.95309233 98.8125 0.25 C99.8125 1.25 99.8125 1.25 99.91015625 4.41015625 C99.89855469 5.69792969 99.88695312 6.98570313 99.875 8.3125 C99.86597656 9.60285156 99.85695313 10.89320312 99.84765625 12.22265625 C99.83605469 13.22167969 99.82445312 14.22070312 99.8125 15.25 C100.98619141 15.23259766 100.98619141 15.23259766 102.18359375 15.21484375 C103.70146484 15.20130859 103.70146484 15.20130859 105.25 15.1875 C106.25933594 15.17589844 107.26867187 15.16429687 108.30859375 15.15234375 C110.8125 15.25 110.8125 15.25 111.8125 16.25 C111.91283866 18.73953697 111.94867943 21.20134953 111.94189453 23.69140625 C111.94452301 24.85964432 111.94452301 24.85964432 111.94720459 26.05148315 C111.95162349 28.63851111 111.94868499 31.22547129 111.9453125 33.8125 C111.94598553 35.60229506 111.94695554 37.39209002 111.94821167 39.18188477 C111.94968869 42.93799711 111.94753394 46.69408572 111.94287109 50.45019531 C111.9371738 55.27600493 111.94045278 60.10175895 111.94644356 64.92756653 C111.95004905 68.62488223 111.94891064 72.32218464 111.94631577 76.01950073 C111.94564646 77.79938768 111.94647503 79.57927582 111.94879532 81.35916138 C111.95132165 83.84233822 111.94748154 86.32542374 111.94189453 88.80859375 C111.94391876 89.55148651 111.94594299 90.29437927 111.94802856 91.05978394 C111.92676262 96.13573738 111.92676262 96.13573738 110.8125 97.25 C109.21639018 97.34333705 107.61616572 97.36745372 106.01733398 97.36352539 C104.99635117 97.36344986 103.97536835 97.36337433 102.92344666 97.36329651 C101.8130452 97.35813522 100.70264374 97.35297394 99.55859375 97.34765625 C98.42801041 97.3462413 97.29742706 97.34482635 96.13258362 97.34336853 C92.50502935 97.33775019 88.87753576 97.32519458 85.25 97.3125 C82.79752693 97.30748736 80.3450529 97.30292405 77.89257812 97.29882812 C71.86586455 97.2877748 65.83918661 97.27101884 59.8125 97.25 C59.5340625 97.86488281 59.255625 98.47976562 58.96875 99.11328125 C57.1356847 102.50073638 54.22163407 104.54543296 50.8125 106.25 C43.96632023 106.70641198 39.7774846 105.82485505 34.4375 101.1875 C32.8125 99.25 32.8125 99.25 32.8125 97.25 C31.87955612 97.25666183 31.87955612 97.25666183 30.92776489 97.26345825 C24.47188609 97.3076024 18.01604995 97.33782918 11.56005859 97.35986328 C9.14858256 97.36993954 6.73711878 97.38360081 4.32568359 97.40087891 C0.86552915 97.4250559 -2.5944642 97.43646669 -6.0546875 97.4453125 C-7.13805389 97.45563507 -8.22142029 97.46595764 -9.33761597 97.47659302 C-10.3385025 97.47674408 -11.33938904 97.47689514 -12.37060547 97.47705078 C-13.25440887 97.481492 -14.13821228 97.48593323 -15.04879761 97.49050903 C-17.1875 97.25 -17.1875 97.25 -19.1875 95.25 C-19.38573371 92.76143088 -19.46030688 90.38415863 -19.44628906 87.89453125 C-19.4497937 87.13667328 -19.45329834 86.37881531 -19.45690918 85.59799194 C-19.4657313 83.08606886 -19.45987574 80.57442608 -19.453125 78.0625 C-19.45447151 76.32136989 -19.45641193 74.58024015 -19.45892334 72.83911133 C-19.46187525 69.18730088 -19.45757483 65.53558817 -19.44824219 61.88378906 C-19.43684759 57.19593019 -19.44340671 52.5083003 -19.45538712 47.82044983 C-19.46260392 44.2243069 -19.46031862 40.62821852 -19.45513153 37.03207397 C-19.45379454 35.3032529 -19.45544449 33.57442692 -19.46009064 31.84561157 C-19.46515297 29.43209659 -19.45744999 27.01895577 -19.44628906 24.60546875 C-19.45033752 23.88644379 -19.45438599 23.16741882 -19.45855713 22.42660522 C-19.41602896 17.47852896 -19.41602896 17.47852896 -17.1875 15.25 C-14.8046875 15.0546875 -14.8046875 15.0546875 -12.0625 15.125 C-10.69738281 15.15207031 -10.69738281 15.15207031 -9.3046875 15.1796875 C-8.60601562 15.20289063 -7.90734375 15.22609375 -7.1875 15.25 C-7.19910156 14.25097656 -7.21070313 13.25195312 -7.22265625 12.22265625 C-7.23167969 10.93230469 -7.24070312 9.64195313 -7.25 8.3125 C-7.26160156 7.02472656 -7.27320313 5.73695312 -7.28515625 4.41015625 C-7.11801938 -0.99839278 -4.88631055 0.0650785 0 0 Z " fill="#475FF9" transform="translate(53.1875,46.75)"/>
<path d="M0 0 C66.33 0 132.66 0 201 0 C201 64.35 201 128.7 201 195 C134.67 195 68.34 195 0 195 C0 130.65 0 66.3 0 0 Z M18.49609375 27.8125 C12.84122161 36.18508681 11.55052687 45.22071636 11.58007812 55.1184082 C11.57160858 56.181633 11.56313904 57.24485779 11.55441284 58.34030151 C11.53116682 61.82725248 11.53001782 65.31375892 11.53125 68.80078125 C11.52414064 71.24399488 11.51644051 73.68720686 11.50817871 76.13041687 C11.49476205 81.24185837 11.49315239 86.35314548 11.49902344 91.46459961 C11.50491462 97.98756465 11.47433745 104.50978417 11.43390656 111.03260517 C11.40795038 116.07636955 11.4051594 121.11995635 11.40879822 126.16377831 C11.40711419 128.56734273 11.3975415 130.97091599 11.37965393 133.37441444 C10.76035208 151.42930162 10.76035208 151.42930162 17 168 C17.99 168.33 18.98 168.66 20 169 C20.28875 169.598125 20.5775 170.19625 20.875 170.8125 C23.4657904 175.850148 29.15719609 178.44652158 34 181 C37.0575853 181.97237403 39.8454694 182.13168452 43.0453186 182.14717102 C44.57167938 182.15790398 44.57167938 182.15790398 46.12887573 182.16885376 C47.23957428 182.17154266 48.35027283 182.17423157 49.49462891 182.17700195 C51.25631409 182.18685875 51.25631409 182.18685875 53.05358887 182.19691467 C56.94457349 182.2166422 60.8355446 182.2283149 64.7265625 182.23828125 C66.06981806 182.24233113 67.41307343 182.24644812 68.75632858 182.25063133 C75.07065852 182.26967507 81.38497685 182.28390582 87.69932997 182.2922433 C94.96885271 182.30200234 102.23806987 182.32829 109.50748503 182.36874419 C115.13825114 182.39899496 120.76893013 182.41372076 126.39977586 182.41702431 C129.75707835 182.41936535 133.1137958 182.43020085 136.47105789 182.45348549 C140.22395213 182.47789395 143.97605419 182.47690797 147.72900391 182.4699707 C148.82755707 182.48278076 149.92611023 182.49559082 151.05795288 182.50878906 C159.83751893 182.44985806 166.2703212 179.90582489 174 176 C174 175.34 174 174.68 174 174 C174.5775 173.7525 175.155 173.505 175.75 173.25 C180.40196418 170.66557545 182.49800738 167.53443542 184.1875 162.5625 C184.51105469 161.63566406 184.83460938 160.70882812 185.16796875 159.75390625 C186.43289995 155.56716214 187.12361379 151.66454414 187.14717102 147.28999329 C187.15432632 146.37201462 187.16148163 145.45403595 187.16885376 144.50823975 C187.17154266 143.51334534 187.17423157 142.51845093 187.17700195 141.4934082 C187.18685875 139.90706825 187.18685875 139.90706825 187.19691467 138.28868103 C187.2166067 134.79271367 187.2283013 131.29678919 187.23828125 127.80078125 C187.24235678 126.60426626 187.2464323 125.40775127 187.25063133 124.17497826 C187.27147474 117.84167021 187.28578389 111.50838373 187.29516602 105.17504883 C187.30622587 98.646182 187.3406264 92.1176564 187.38033772 85.5889101 C187.40652753 80.55730064 187.41485999 75.5257722 187.41844749 70.49410057 C187.42330738 68.0880522 187.43490418 65.6820073 187.45348549 63.27602577 C187.47792603 59.90159952 187.47690245 56.52805278 187.4699707 53.15356445 C187.48278076 52.1687912 187.49559082 51.18401794 187.50878906 50.16940308 C187.4289963 39.45871451 183.46525548 30.66210806 176 23 C167.88648512 16.56568453 160.07909392 15.70140021 149.98706055 15.70947266 C148.7814447 15.70275543 147.57582886 15.69603821 146.3336792 15.68911743 C143.03800341 15.67340584 139.74257969 15.66676423 136.44688392 15.66548586 C134.38405586 15.66406066 132.32125393 15.65978408 130.25843239 15.65449142 C123.05093341 15.63600751 115.84350822 15.62781867 108.63598633 15.62939453 C101.93533834 15.63059518 95.23501284 15.60950397 88.53444642 15.5779072 C82.7669136 15.55168698 76.99948574 15.54102965 71.23189384 15.54230535 C67.79370347 15.54281334 64.35579987 15.5372212 60.9176693 15.51594925 C57.07855011 15.49630476 53.24025617 15.50212255 49.40112305 15.51416016 C48.27406448 15.50292114 47.14700592 15.49168213 45.98579407 15.48010254 C35.25684977 15.5653772 25.50296334 19.36785717 18.49609375 27.8125 Z " fill="#7892EC" transform="translate(0,0)"/>
<path d="M0 0 C66.33 0 132.66 0 201 0 C201 64.35 201 128.7 201 195 C134.67 195 68.34 195 0 195 C0 130.65 0 66.3 0 0 Z M11.2109375 18.0546875 C9.72593505 19.99323749 8.3422195 21.9606923 7 24 C6.4225 24.845625 5.845 25.69125 5.25 26.5625 C1.64308201 33.59599008 1.70323092 40.33781242 1.70947266 48.09472656 C1.70275543 49.29727585 1.69603821 50.49982513 1.68911743 51.73881531 C1.67342186 55.02213225 1.66676512 58.30529699 1.66548586 61.58864689 C1.66405926 63.64529807 1.65978002 65.70192314 1.65449142 67.75856781 C1.63601381 74.94892547 1.62781776 82.13920923 1.62939453 89.32958984 C1.63059457 96.00692997 1.60951365 102.68394616 1.5779072 109.36120439 C1.55165624 115.11435138 1.54103094 120.86739317 1.54230535 126.62059951 C1.5428125 130.04766105 1.53726779 133.47443456 1.51594925 136.90143585 C1.49625757 140.73045888 1.50214116 144.55865776 1.51416016 148.38769531 C1.50292114 149.50599228 1.49168213 150.62428925 1.48010254 151.776474 C1.55575773 161.30689326 3.63448013 170.03613212 9.9375 177.4375 C10.58589844 178.21996094 11.23429688 179.00242188 11.90234375 179.80859375 C15.39072094 183.45287606 19.1531046 186.25658115 23.5625 188.6875 C24.30628906 189.10386719 25.05007812 189.52023438 25.81640625 189.94921875 C29.72674399 191.83093763 33.17682433 192.12815405 37.49415588 192.14717102 C38.61125443 192.15432632 39.72835297 192.16148163 40.87930298 192.16885376 C42.71130753 192.17288712 42.71130753 192.17288712 44.58032227 192.17700195 C45.87021561 192.18357315 47.16010895 192.19014435 48.48908997 192.19691467 C52.76484949 192.21791763 57.04060921 192.22831656 61.31640625 192.23828125 C62.79212907 192.24233083 64.2678517 192.24644781 65.74357414 192.25063133 C72.68100978 192.26967823 79.61843483 192.28390782 86.55589157 192.2922433 C94.54362841 192.30200085 102.53108704 192.32828343 110.51872593 192.36874419 C116.70491687 192.39899565 122.89102849 192.41372087 129.07729191 192.41702431 C132.76597926 192.41936538 136.45436927 192.42820104 140.14297676 192.45348549 C144.26679835 192.48129624 148.39000634 192.47690765 152.51391602 192.4699707 C153.72108276 192.48278076 154.92824951 192.49559082 156.17199707 192.50878906 C169.13543907 192.42960819 178.00844881 188.29239607 187.5 179.75 C189.21693046 178.13106215 189.21693046 178.13106215 189 176 C189.66 176 190.32 176 191 176 C197.18046232 166.72930652 197.30046877 156.45422646 197.33813477 145.59057617 C197.34967087 144.40201523 197.36120697 143.21345428 197.37309265 141.98887634 C197.40129873 138.76140317 197.42053527 135.53406821 197.43330884 132.30650115 C197.44145319 130.28129735 197.45163492 128.25611265 197.46232414 126.23092079 C197.49494716 119.86855646 197.51888303 113.50624019 197.531138 107.14380378 C197.54538579 99.84636919 197.58927488 92.54990281 197.65863949 85.25278872 C197.71068499 79.57849685 197.73533108 73.90447826 197.73996013 68.22995168 C197.74333167 64.85544076 197.76128121 61.48269102 197.80124092 58.10829735 C197.99477138 40.61691794 197.65405995 28.47915927 185.75 14.9375 C178.72270155 8.46467107 170.01074891 4.89466979 160.49911499 4.85282898 C159.38057129 4.84567368 158.26202759 4.83851837 157.10958862 4.83114624 C155.27522751 4.82711288 155.27522751 4.82711288 153.40380859 4.82299805 C151.46655914 4.81314125 151.46655914 4.81314125 149.49017334 4.80308533 C145.20960728 4.78208412 140.92904103 4.77168463 136.6484375 4.76171875 C135.17145393 4.75766931 133.69447054 4.75355233 132.21748734 4.74936867 C125.27524834 4.73032334 118.33301991 4.71609258 111.39075983 4.7077567 C103.39452315 4.69799522 95.39856409 4.67170168 87.40242517 4.63125581 C81.21115435 4.60102137 75.01996277 4.58628079 68.8286196 4.58297569 C65.13605199 4.58063298 61.44378116 4.57177543 57.75129318 4.54651451 C53.62487291 4.51874091 49.49906661 4.5230872 45.37255859 4.5300293 C44.16179657 4.51721924 42.95103455 4.50440918 41.70358276 4.49121094 C29.37171188 4.56662536 19.40944997 8.63892863 11.2109375 18.0546875 Z " fill="#F6F9FD" transform="translate(0,0)"/>
<path d="M0 0 C17.87114161 0.16378847 17.87114161 0.16378847 24.625 6.1875 C24.625 7.1775 24.625 8.1675 24.625 9.1875 C15.93273013 9.1875 7.26410564 8.14740063 -1.375 7.1875 C-1.375 29.9575 -1.375 52.7275 -1.375 76.1875 C1.265 76.1875 3.905 76.1875 6.625 76.1875 C9.21987653 76.57518076 11.80534309 77.03283602 14.375 77.5625 C15.64859375 77.81773438 16.9221875 78.07296875 18.234375 78.3359375 C21.02498972 79.03680617 23.22283097 79.63315533 25.625 81.1875 C26.375 83.3125 26.375 83.3125 26.625 85.1875 C22.38870925 87.30564537 16.40766505 85.29401353 11.76660156 84.66381836 C9.63473737 84.37631319 7.50125834 84.10455935 5.3671875 83.83398438 C4.01549809 83.65459955 2.66393078 83.47429178 1.3125 83.29296875 C-0.53794922 83.04776489 -0.53794922 83.04776489 -2.42578125 82.79760742 C-5.375 82.1875 -5.375 82.1875 -7.375 80.1875 C-7.61550903 77.66915894 -7.61550903 77.66915894 -7.60205078 74.45263672 C-7.60189972 73.25154266 -7.60174866 72.05044861 -7.60159302 70.81295776 C-7.59127045 69.51085358 -7.58094788 68.20874939 -7.5703125 66.8671875 C-7.56658276 65.52483327 -7.56373561 64.18247633 -7.56173706 62.84011841 C-7.55409744 59.305486 -7.5344463 55.77101772 -7.5123291 52.2364502 C-7.49187765 48.6303123 -7.48273685 45.02414791 -7.47265625 41.41796875 C-7.4512006 34.34107865 -7.41706079 27.26430003 -7.375 20.1875 C-9.355 20.1875 -11.335 20.1875 -13.375 20.1875 C-13.375 43.9475 -13.375 67.7075 -13.375 92.1875 C3.125 91.8575 19.625 91.5275 36.625 91.1875 C37.945 93.8275 39.265 96.4675 40.625 99.1875 C42.58303507 99.24139087 44.54148909 99.28024217 46.5 99.3125 C47.59054688 99.33570313 48.68109375 99.35890625 49.8046875 99.3828125 C52.7621051 99.48810534 52.7621051 99.48810534 54.625 97.1875 C54.955 95.5375 55.285 93.8875 55.625 92.1875 C72.125 92.1875 88.625 92.1875 105.625 92.1875 C105.625 68.4275 105.625 44.6675 105.625 20.1875 C103.645 20.1875 101.665 20.1875 99.625 20.1875 C99.62722061 20.94949203 99.62944122 21.71148407 99.63172913 22.49656677 C99.65173157 29.66301712 99.66697388 36.82945401 99.67681217 43.99592495 C99.68204008 47.68064498 99.68913605 51.36534203 99.70043945 55.05004883 C99.71127162 58.60320831 99.71727753 62.15634563 99.71987724 65.70952034 C99.7217309 67.06795666 99.72535038 68.42639171 99.73073006 69.78481865 C99.73794475 71.68132223 99.73840809 73.57784793 99.73852539 75.47436523 C99.740746 76.55580307 99.74296661 77.63724091 99.74525452 78.75144958 C99.625 81.1875 99.625 81.1875 98.625 82.1875 C92.75761338 83.13236068 87.05797581 83.31280838 81.125 83.25 C79.89136719 83.24323242 79.89136719 83.24323242 78.6328125 83.23632812 C76.63017604 83.22468489 74.62757773 83.20675556 72.625 83.1875 C72.625 82.1975 72.625 81.2075 72.625 80.1875 C74.40909847 79.50083667 76.20288923 78.83934874 78 78.1875 C78.99773437 77.81625 79.99546875 77.445 81.0234375 77.0625 C84.625 76.1875 84.625 76.1875 94.625 76.1875 C94.625 53.0875 94.625 29.9875 94.625 6.1875 C89.675 6.8475 84.725 7.5075 79.625 8.1875 C76.24617188 8.26095279 72.98359423 8.30840939 69.625 8.1875 C68.635 8.1875 67.645 8.1875 66.625 8.1875 C68.4375 6.1875 68.4375 6.1875 70.625 4.1875 C71.615 4.1875 72.605 4.1875 73.625 4.1875 C73.625 3.5275 73.625 2.8675 73.625 2.1875 C81.95367334 0.68296546 90.14467689 -0.44121361 98.625 0.1875 C99.625 1.1875 99.625 1.1875 99.72265625 4.34765625 C99.71105469 5.63542969 99.69945312 6.92320313 99.6875 8.25 C99.67847656 9.54035156 99.66945313 10.83070312 99.66015625 12.16015625 C99.64855469 13.15917969 99.63695312 14.15820312 99.625 15.1875 C100.79869141 15.17009766 100.79869141 15.17009766 101.99609375 15.15234375 C103.51396484 15.13880859 103.51396484 15.13880859 105.0625 15.125 C106.07183594 15.11339844 107.08117187 15.10179687 108.12109375 15.08984375 C110.625 15.1875 110.625 15.1875 111.625 16.1875 C111.72533866 18.67703697 111.76117943 21.13884953 111.75439453 23.62890625 C111.75702301 24.79714432 111.75702301 24.79714432 111.75970459 25.98898315 C111.76412349 28.57601111 111.76118499 31.16297129 111.7578125 33.75 C111.75848553 35.53979506 111.75945554 37.32959002 111.76071167 39.11938477 C111.76218869 42.87549711 111.76003394 46.63158572 111.75537109 50.38769531 C111.7496738 55.21350493 111.75295278 60.03925895 111.75894356 64.86506653 C111.76254905 68.56238223 111.76141064 72.25968464 111.75881577 75.95700073 C111.75814646 77.73688768 111.75897503 79.51677582 111.76129532 81.29666138 C111.76382165 83.77983822 111.75998154 86.26292374 111.75439453 88.74609375 C111.75641876 89.48898651 111.75844299 90.23187927 111.76052856 90.99728394 C111.73926262 96.07323738 111.73926262 96.07323738 110.625 97.1875 C109.02889018 97.28083705 107.42866572 97.30495372 105.82983398 97.30102539 C104.80885117 97.30094986 103.78786835 97.30087433 102.73594666 97.30079651 C101.6255452 97.29563522 100.51514374 97.29047394 99.37109375 97.28515625 C98.24051041 97.2837413 97.10992706 97.28232635 95.94508362 97.28086853 C92.31752935 97.27525019 88.69003576 97.26269458 85.0625 97.25 C82.61002693 97.24498736 80.1575529 97.24042405 77.70507812 97.23632812 C71.67836455 97.2252748 65.65168661 97.20851884 59.625 97.1875 C59.3465625 97.80238281 59.068125 98.41726562 58.78125 99.05078125 C56.9481847 102.43823638 54.03413407 104.48293296 50.625 106.1875 C43.77882023 106.64391198 39.5899846 105.76235505 34.25 101.125 C32.625 99.1875 32.625 99.1875 32.625 97.1875 C31.69205612 97.19416183 31.69205612 97.19416183 30.74026489 97.20095825 C24.28438609 97.2451024 17.82854995 97.27532918 11.37255859 97.29736328 C8.96108256 97.30743954 6.54961878 97.32110081 4.13818359 97.33837891 C0.67802915 97.3625559 -2.7819642 97.37396669 -6.2421875 97.3828125 C-7.32555389 97.39313507 -8.40892029 97.40345764 -9.52511597 97.41409302 C-10.5260025 97.41424408 -11.52688904 97.41439514 -12.55810547 97.41455078 C-13.44190887 97.418992 -14.32571228 97.42343323 -15.23629761 97.42800903 C-17.375 97.1875 -17.375 97.1875 -19.375 95.1875 C-19.57323371 92.69893088 -19.64780688 90.32165863 -19.63378906 87.83203125 C-19.6372937 87.07417328 -19.64079834 86.31631531 -19.64440918 85.53549194 C-19.6532313 83.02356886 -19.64737574 80.51192608 -19.640625 78 C-19.64197151 76.25886989 -19.64391193 74.51774015 -19.64642334 72.77661133 C-19.64937525 69.12480088 -19.64507483 65.47308817 -19.63574219 61.82128906 C-19.62434759 57.13343019 -19.63090671 52.4458003 -19.64288712 47.75794983 C-19.65010392 44.1618069 -19.64781862 40.56571852 -19.64263153 36.96957397 C-19.64129454 35.2407529 -19.64294449 33.51192692 -19.64759064 31.78311157 C-19.65265297 29.36959659 -19.64494999 26.95645577 -19.63378906 24.54296875 C-19.63783752 23.82394379 -19.64188599 23.10491882 -19.64605713 22.36410522 C-19.60352896 17.41602896 -19.60352896 17.41602896 -17.375 15.1875 C-14.9921875 14.9921875 -14.9921875 14.9921875 -12.25 15.0625 C-10.88488281 15.08957031 -10.88488281 15.08957031 -9.4921875 15.1171875 C-8.79351562 15.14039063 -8.09484375 15.16359375 -7.375 15.1875 C-7.38660156 14.18847656 -7.39820313 13.18945312 -7.41015625 12.16015625 C-7.41917969 10.86980469 -7.42820312 9.57945313 -7.4375 8.25 C-7.44910156 6.96222656 -7.46070313 5.67445312 -7.47265625 4.34765625 C-7.30304033 -1.14111505 -4.93102153 0.0267409 0 0 Z " fill="#E7EEFD" transform="translate(53.375,46.8125)"/>
<path d="M0 0 C14.26770386 0 14.26770386 0 21.375 1.4375 C22.10976562 1.55287109 22.84453125 1.66824219 23.6015625 1.78710938 C31.25200072 3.31589592 39.70938902 7.08715161 45 13 C46.89301463 18.28374522 46.64891301 23.24813643 46.3671875 28.75390625 C46.34103017 30.26552603 46.32112311 31.77726565 46.30715942 33.28904724 C46.25403679 37.24284482 46.11689331 41.18928318 45.96130371 45.14019775 C45.81731183 49.18164467 45.75398762 53.22429823 45.68359375 57.26757812 C45.53404817 65.18174027 45.29559446 73.0899517 45 81 C43.55902326 80.53493406 42.11932509 80.06590537 40.68017578 79.59521484 C39.87830841 79.3344516 39.07644104 79.07368835 38.25027466 78.80502319 C36 78 36 78 33.1171875 76.4765625 C28.61993388 74.34628447 23.97185024 73.42612415 19.125 72.375 C18.16980469 72.1584375 17.21460937 71.941875 16.23046875 71.71875 C10.78390655 70.50840284 5.58055851 69.69756981 0 69 C0 46.23 0 23.46 0 0 Z " fill="#475FF8" transform="translate(52,54)"/>
<path d="M0 0 C11.52164009 3.07517084 11.52164009 3.07517084 17 5 C17 5.66 17 6.32 17 7 C17.9075 7.28875 18.815 7.5775 19.75 7.875 C23 9 23 9 24.85546875 10.265625 C27.11143952 11.31230494 27.11143952 11.31230494 29.62890625 9.8046875 C31.08103516 8.84949219 31.08103516 8.84949219 32.5625 7.875 C46.32116925 -0.64628108 46.32116925 -0.64628108 52.3125 0.40625 C52.869375 0.6021875 53.42625 0.798125 54 1 C52.02 1.99 50.04 2.98 48 4 C48.99 4 49.98 4 51 4 C53.1875 5 53.1875 5 55 6 C54.2265625 6.24234375 53.453125 6.4846875 52.65625 6.734375 C46.53095568 8.70538555 40.54521306 10.68547492 35 14 C33.97087494 14.57346916 33.97087494 14.57346916 32.92095947 15.15852356 C30.7182735 16.90199173 30.7182735 16.90199173 30.51898193 19.90434265 C30.52786438 21.08792862 30.53674683 22.27151459 30.54589844 23.4909668 C30.54531433 24.1448941 30.54473022 24.79882141 30.54412842 25.4725647 C30.54691312 27.63199122 30.57801958 29.79003371 30.609375 31.94921875 C30.61683611 33.44707993 30.62252966 34.94495088 30.62652588 36.44282532 C30.64179274 40.38370756 30.68108276 44.32399936 30.7253418 48.26464844 C30.76627233 52.28637708 30.7845321 56.3082012 30.8046875 60.33007812 C30.84757674 68.22032294 30.91583992 76.110088 31 84 C31.52946228 83.72887894 32.05892456 83.45775787 32.60443115 83.17842102 C33.30956848 82.82088242 34.01470581 82.46334381 34.74121094 82.0949707 C35.78290436 81.56453911 35.78290436 81.56453911 36.84564209 81.02339172 C40.21605605 79.42233289 43.69043367 78.28717591 47.25 77.1875 C47.94351563 76.95869141 48.63703125 76.72988281 49.3515625 76.49414062 C55.55277051 74.55180823 55.55277051 74.55180823 59 76 C57.02 76.33 55.04 76.66 53 77 C53 77.99 53 78.98 53 80 C65.87 79.01 65.87 79.01 79 78 C79.33 57.87 79.66 37.74 80 17 C81.98 17 83.96 17 86 17 C86 40.76 86 64.52 86 89 C69.5 89 53 89 36 89 C36 90.65 36 92.3 36 94 C34.8671875 95.76953125 34.8671875 95.76953125 33 97 C30.2578125 97.57421875 30.2578125 97.57421875 27.125 97.6875 C26.09632812 97.75324219 25.06765625 97.81898438 24.0078125 97.88671875 C21 97 21 97 20.0065155 95.19087219 C19.67847427 94.46570908 19.35043304 93.74054596 19.01245117 92.9934082 C17.41492367 90.33011404 16.6691797 89.20374297 13.66271973 88.28837585 C10.67840788 88.07335813 7.78261058 88.10023285 4.79296875 88.21875 C3.8347522 88.22680664 2.87653564 88.23486328 1.88928223 88.24316406 C-1.6787614 88.28491701 -5.24571021 88.39661147 -8.8125 88.5 C-16.794375 88.665 -24.77625 88.83 -33 89 C-33 65.24 -33 41.48 -33 17 C-31.02 17 -29.04 17 -27 17 C-26.98969254 17.74946396 -26.97938507 18.49892792 -26.96876526 19.27110291 C-26.87095475 26.31990454 -26.76846424 33.36861874 -26.66066074 40.41727352 C-26.60539903 44.0414158 -26.551974 47.6655661 -26.50268555 51.28979492 C-26.45508968 54.78467099 -26.4027489 58.2794462 -26.34705925 61.77420235 C-26.31663587 63.76233823 -26.29118018 65.75054809 -26.26576233 67.73875427 C-26.24581711 68.93992386 -26.22587189 70.14109344 -26.20532227 71.37866211 C-26.18977798 72.44233505 -26.1742337 73.506008 -26.15821838 74.60191345 C-26.26771448 76.95195928 -26.26771448 76.95195928 -25 78 C-22.71418612 78.37131982 -20.41884471 78.68427455 -18.12109375 78.97265625 C-17.09110008 79.1037101 -17.09110008 79.1037101 -16.04029846 79.2374115 C-13.83985058 79.51645205 -11.63870909 79.78953569 -9.4375 80.0625 C-7.94851836 80.25026015 -6.45958533 80.43840615 -4.97070312 80.62695312 C-1.31435617 81.08911962 2.34263582 81.54594538 6 82 C6 80.68 6 79.36 6 78 C10.33304076 78.64465202 13.86672065 80.18925122 17.8125 82.0625 C18.97394531 82.61035156 20.13539062 83.15820312 21.33203125 83.72265625 C22.21246094 84.14417969 23.09289062 84.56570312 24 85 C24.17097711 76.27168459 24.27110645 67.54619242 24.28240681 58.81620026 C24.28984766 54.76153747 24.3210889 50.71005065 24.40795898 46.65625 C24.49101161 42.73877671 24.50992729 38.82562024 24.48558617 34.90739441 C24.48736954 33.41778028 24.51173569 31.92800643 24.55968666 30.43916321 C24.70257683 25.72552761 24.58795657 21.50634881 23 17 C16.8722397 11.11824541 9.36758383 8.13458764 1 7 C2.32 6.01 3.64 5.02 5 4 C4.505 3.01 4.505 3.01 4 2 C1.97536745 1.34786708 1.97536745 1.34786708 0 1 C0 0.67 0 0.34 0 0 Z " fill="#E9EEFD" transform="translate(73,50)"/>
<path d="M0 0 C1 1 1 1 1.09765625 4.16015625 C1.08605469 5.44792969 1.07445312 6.73570313 1.0625 8.0625 C1.05347656 9.35285156 1.04445312 10.64320312 1.03515625 11.97265625 C1.02355469 12.97167969 1.01195312 13.97070312 1 15 C4.63 15 8.26 15 12 15 C12 40.74 12 66.48 12 93 C10.68 92.67 9.36 92.34 8 92 C8 68.24 8 44.48 8 20 C5.69 20 3.38 20 1 20 C1.00222061 20.76199203 1.00444122 21.52398407 1.00672913 22.30906677 C1.02673157 29.47551712 1.04197388 36.64195401 1.05181217 43.80842495 C1.05704008 47.49314498 1.06413605 51.17784203 1.07543945 54.86254883 C1.08627162 58.41570831 1.09227753 61.96884563 1.09487724 65.52202034 C1.0967309 66.88045666 1.10035038 68.23889171 1.10573006 69.59731865 C1.11294475 71.49382223 1.11340809 73.39034793 1.11352539 75.28686523 C1.115746 76.36830307 1.11796661 77.44974091 1.12025452 78.56394958 C1 81 1 81 0 82 C-5.86738662 82.94486068 -11.56702419 83.12530838 -17.5 83.0625 C-18.32242188 83.05798828 -19.14484375 83.05347656 -19.9921875 83.04882812 C-21.99482396 83.03718489 -23.99742227 83.01925556 -26 83 C-26 82.01 -26 81.02 -26 80 C-24.21590153 79.31333667 -22.42211077 78.65184874 -20.625 78 C-19.62726563 77.62875 -18.62953125 77.2575 -17.6015625 76.875 C-14 76 -14 76 -4 76 C-4 52.9 -4 29.8 -4 6 C-8.95 6.66 -13.9 7.32 -19 8 C-22.37882812 8.07345279 -25.64140577 8.12090939 -29 8 C-29.99 8 -30.98 8 -32 8 C-30.1875 6 -30.1875 6 -28 4 C-27.01 4 -26.02 4 -25 4 C-25 3.34 -25 2.68 -25 2 C-16.67132666 0.49546546 -8.48032311 -0.62871361 0 0 Z " fill="#EFF3FE" transform="translate(152,47)"/>
<path d="M0 0 C1.98 0 3.96 0 6 0 C6 23.76 6 47.52 6 72 C-10.5 72 -27 72 -44 72 C-44 73.65 -44 75.3 -44 77 C-45.125 78.78125 -45.125 78.78125 -47 80 C-49.8125 80.46875 -49.8125 80.46875 -53 80.5 C-54.051875 80.5309375 -55.10375 80.561875 -56.1875 80.59375 C-59 80 -59 80 -60.875 77.59375 C-62 75 -62 75 -62 73 C-60.68 73 -59.36 73 -58 73 C-58 73.66 -58 74.32 -58 75 C-53.12040809 75.63646851 -50.67592848 75.03390531 -46.5625 72.3125 C-32.72065525 63.53979122 -17.11419577 63.01427447 -1 61 C-0.67 40.87 -0.34 20.74 0 0 Z " fill="#485FE9" transform="translate(153,67)"/>
<path d="M0 0 C0.33 0 0.66 0 1 0 C1.00219984 0.94338462 1.00219984 0.94338462 1.00444412 1.90582752 C1.04158574 17.24831613 1.10069723 32.59054192 1.18390274 47.93284321 C1.2236181 55.35244902 1.25604849 62.77194992 1.27099609 70.19165039 C1.28405175 76.66286764 1.31111533 83.13385333 1.35461307 89.60494012 C1.37714069 93.02758638 1.39291597 96.44994797 1.39188385 99.87267494 C1.39425947 103.70493588 1.42139019 107.53630223 1.45410156 111.3684082 C1.44655602 113.04832352 1.44655602 113.04832352 1.43885803 114.76217651 C1.59856221 126.91235234 5.42772527 136.35420661 14 145 C23.60792092 153.11936979 31.4672283 154.29659842 43.72827148 154.31884766 C44.99725784 154.32889328 46.2662442 154.3389389 47.57368469 154.34928894 C51.035957 154.37647789 54.49818887 154.39170517 57.96053958 154.40471697 C61.5853987 154.42039639 65.21017584 154.44717116 68.8349762 154.4727478 C75.69124339 154.5194507 82.54752615 154.55623575 89.40387064 154.58942068 C97.21288318 154.62770222 105.0218132 154.67709649 112.83075607 154.72740483 C128.88711137 154.83059835 144.94351254 154.91989946 161 155 C161 155.33 161 155.66 161 156 C119.75 156.33 78.5 156.66 36 157 C36 157.33 36 157.66 36 158 C23.79 158 11.58 158 -1 158 C-1.07350699 127.4394674 -0.81446976 96.88277898 -0.55461788 66.32371259 C-0.49301957 59.07283522 -0.43308106 51.82194438 -0.37324238 44.57105231 C-0.2505981 29.71401985 -0.12599354 14.85700447 0 0 Z " fill="#EBF0FB" transform="translate(1,37)"/>
<path d="M0 0 C1.98 0 3.96 0 6 0 C6.01030746 0.74946396 6.02061493 1.49892792 6.03123474 2.27110291 C6.12904525 9.31990454 6.23153576 16.36861874 6.33933926 23.41727352 C6.39460097 27.0414158 6.448026 30.6655661 6.49731445 34.28979492 C6.54491032 37.78467099 6.5972511 41.2794462 6.65294075 44.77420235 C6.68336413 46.76233823 6.70881982 48.75054809 6.73423767 50.73875427 C6.75418289 51.93992386 6.77412811 53.14109344 6.79467773 54.37866211 C6.81022202 55.44233505 6.8257663 56.506008 6.84178162 57.60191345 C6.73228552 59.95195928 6.73228552 59.95195928 8 61 C9.39248041 61.24911775 10.79486235 61.44344473 12.19921875 61.61328125 C13.50934937 61.78053711 13.50934937 61.78053711 14.84594727 61.95117188 C15.78365967 62.07041016 16.72137207 62.18964844 17.6875 62.3125 C39.3155282 65.23664615 39.3155282 65.23664615 47 71 C31.49 71 15.98 71 0 71 C0 47.57 0 24.14 0 0 Z " fill="#5E71E9" transform="translate(40,67)"/>
<path d="M0 0 C1.93133537 -0.01292336 1.93133537 -0.01292336 3.90168762 -0.02610779 C7.40612581 -0.04845062 10.91010914 -0.04569728 14.41459107 -0.03678632 C17.35404134 -0.03164382 20.29340855 -0.03899555 23.23285025 -0.04625839 C30.17581644 -0.06321077 37.11856261 -0.05974044 44.06152344 -0.04296875 C51.19170345 -0.02606591 58.32127038 -0.04186674 65.45138341 -0.07419163 C71.60210145 -0.10100591 77.75263005 -0.10813142 83.9034006 -0.09967655 C87.56412946 -0.09477987 91.22449021 -0.09678311 94.88517189 -0.11746407 C98.97460974 -0.13946465 103.06290915 -0.12028994 107.15234375 -0.09765625 C108.93816864 -0.11519455 108.93816864 -0.11519455 110.7600708 -0.13308716 C119.28018194 -0.03775454 126.02867915 2.02578923 133.77026367 5.53344727 C130.77026367 6.53344727 130.77026367 6.53344727 127.39068604 5.12120056 C121.65334625 2.83266634 115.94406849 3.10643315 109.84350586 3.12939453 C107.92482948 3.11909966 107.92482948 3.11909966 105.96739197 3.1085968 C102.47742835 3.09073655 98.98771717 3.09182083 95.49772167 3.09753919 C92.57320186 3.10064308 89.6487297 3.09452493 86.7242167 3.08850044 C79.81683611 3.07447867 72.90957924 3.07599535 66.00219727 3.08740234 C58.90393303 3.09886642 51.80604739 3.0848316 44.70783305 3.05800587 C38.59031051 3.03576193 32.47290603 3.02923139 26.35534596 3.03508228 C22.71199174 3.0384342 19.06887977 3.0361564 15.42556 3.01883125 C11.35500099 3.00031788 7.28516493 3.01463795 3.21459961 3.03173828 C2.02666306 3.02207031 0.8387265 3.01240234 -0.38520813 3.00244141 C-7.46420506 3.06437625 -13.25108898 4.16715805 -19.88207626 6.67608547 C-22.22973633 7.53344727 -22.22973633 7.53344727 -24.22973633 7.53344727 C-24.22973633 8.19344727 -24.22973633 8.85344727 -24.22973633 9.53344727 C-29.7059268 14.53344727 -29.7059268 14.53344727 -32.22973633 14.53344727 C-32.22973633 15.85344727 -32.22973633 17.17344727 -32.22973633 18.53344727 C-33.21973633 19.19344727 -34.20973633 19.85344727 -35.22973633 20.53344727 C-36.39463255 23.0352768 -36.39463255 23.0352768 -37.29223633 25.90844727 C-39.10423341 31.30805302 -39.10423341 31.30805302 -40.27332497 33.40765762 C-41.37950095 35.86632503 -41.48621969 37.58391783 -41.49716187 40.27264404 C-41.50995682 41.69764977 -41.50995682 41.69764977 -41.52301025 43.15144348 C-41.52210388 44.18726059 -41.52119751 45.2230777 -41.52026367 46.2902832 C-41.5269809 47.38682724 -41.53369812 48.48337128 -41.5406189 49.61314392 C-41.55965356 53.24808258 -41.56352716 56.88283681 -41.56567383 60.51782227 C-41.57210253 63.05210444 -41.57883095 65.58638588 -41.58584595 68.1206665 C-41.59783563 73.44366471 -41.60161119 78.76659451 -41.6003418 84.08959961 C-41.59914674 90.20386635 -41.62011922 96.31777644 -41.65182912 102.43195319 C-41.68138117 108.34473759 -41.68831086 114.25738401 -41.68712234 120.17023468 C-41.6894669 122.66900325 -41.698225 125.16777506 -41.71378708 127.66649628 C-42.0758974 147.48357986 -42.0758974 147.48357986 -37.22973633 166.53344727 C-36.23973633 167.19344727 -35.24973633 167.85344727 -34.22973633 168.53344727 C-32.47973633 171.53344727 -32.47973633 171.53344727 -31.22973633 174.53344727 C-31.72473633 175.52344727 -31.72473633 175.52344727 -32.22973633 176.53344727 C-33.3322329 175.27920256 -34.41045949 174.0036302 -35.47973633 172.72094727 C-36.08301758 172.01325195 -36.68629883 171.30555664 -37.30786133 170.57641602 C-42.65119571 162.11613657 -43.81672977 153.79004279 -43.73144531 143.95288086 C-43.7368483 142.74653488 -43.74225128 141.5401889 -43.74781799 140.29728699 C-43.75810518 137.02240712 -43.75069516 133.74819695 -43.73410678 130.47336149 C-43.7201368 127.02761763 -43.72672959 123.58190098 -43.73023987 120.13613892 C-43.73293192 114.35475188 -43.71955105 108.57357366 -43.69628906 102.79223633 C-43.66966032 96.1284367 -43.66794393 89.46498533 -43.67967743 82.80115068 C-43.69049093 76.3613121 -43.68424186 69.92159828 -43.67012215 63.48176956 C-43.66439574 60.75391276 -43.66441837 58.02614828 -43.66918755 55.29829025 C-43.67210766 51.4837236 -43.65555406 47.66971999 -43.63378906 43.85522461 C-43.63829071 42.73602127 -43.64279236 41.61681793 -43.64743042 40.46369934 C-43.5348435 28.54820299 -40.03230671 20.55005395 -32.22973633 11.53344727 C-22.7931378 2.35143323 -12.89312364 -0.0703137 0 0 Z " fill="#7E91D1" transform="translate(45.229736328125,4.466552734375)"/>
<path d="M0 0 C3.65560886 4.48642906 5.24908399 8.43529814 5.25396729 14.23477173 C5.26242676 15.78626923 5.26242676 15.78626923 5.27105713 17.36911011 C5.26498444 19.05546066 5.26498444 19.05546066 5.25878906 20.77587891 C5.26404602 22.5646344 5.26404602 22.5646344 5.26940918 24.38952637 C5.27669721 27.65438255 5.27499586 30.91907622 5.26865101 34.18392992 C5.26357343 37.61142337 5.26828799 41.03890625 5.27142334 44.46640015 C5.27506082 50.22810807 5.27027271 55.98976471 5.26074219 61.75146484 C5.24988903 68.38890743 5.25336115 75.02622683 5.264395 81.66366637 C5.27351125 87.37855214 5.27473114 93.09340109 5.26951766 98.80829179 C5.26641769 102.21404875 5.26593315 105.61974812 5.27259064 109.02550125 C5.27770084 112.83300184 5.26988105 116.64027047 5.25878906 120.44775391 C5.26283752 121.55984222 5.26688599 122.67193054 5.27105713 123.81771851 C5.21805249 133.69797332 4.576846 142.634731 -1 151 C-1.66 151 -2.32 151 -3 151 C-3.2578125 151.5878125 -3.515625 152.175625 -3.78125 152.78125 C-7.8208628 160.1354169 -15.37832994 163.48200599 -23 166 C-23.99 166.33 -24.98 166.66 -26 167 C-27.75082814 167.09037546 -29.50494412 167.12195827 -31.25810242 167.12025452 C-32.89242722 167.12231651 -32.89242722 167.12231651 -34.55976868 167.12442017 C-36.35295784 167.11902725 -36.35295784 167.11902725 -38.18237305 167.11352539 C-39.44102173 167.11367142 -40.69967041 167.11381744 -41.99645996 167.1139679 C-45.44866579 167.1142551 -48.90083696 167.1083707 -52.35303473 167.10139394 C-55.96051849 167.0951477 -59.56800301 167.09455559 -63.17549133 167.09336853 C-70.00713919 167.09025897 -76.83877107 167.08205062 -83.67041188 167.07201904 C-91.44784034 167.06084628 -99.22526955 167.05534452 -107.00270402 167.05032361 C-123.00181194 167.03986771 -139.00090391 167.0222755 -155 167 C-155 166.67 -155 166.34 -155 166 C-154.08533793 165.99641747 -154.08533793 165.99641747 -153.15219784 165.99276257 C-138.25064305 165.93338453 -123.34923644 165.85769095 -108.44785976 165.76428509 C-101.24137786 165.71949814 -94.03494349 165.68004513 -86.82836914 165.65356445 C-80.54025975 165.6304447 -74.25230298 165.59689382 -67.964315 165.55129844 C-64.64103318 165.52755222 -61.31803706 165.51026029 -57.99465752 165.50238609 C-34.63137141 166.65515116 -34.63137141 166.65515116 -14 158 C-13.113125 157.525625 -12.22625 157.05125 -11.3125 156.5625 C-8.5290936 154.68182 -7.94186875 153.16810397 -7 150 C-5.68 150 -4.36 150 -3 150 C-2.9175 149.319375 -2.835 148.63875 -2.75 147.9375 C-2 145 -2 145 0.00079346 141.91130066 C2.55630503 137.51795858 2.65954094 133.47746617 2.73730469 128.48168945 C2.77995516 127.10891956 2.77995516 127.10891956 2.82346725 125.70841694 C2.90551111 122.80559746 2.95697332 119.90364233 3 117 C3.0161586 116.08530819 3.0323172 115.17061638 3.04896545 114.22820663 C3.15931989 107.58313546 3.1905489 100.93885253 3.203125 94.29296875 C3.20595238 93.26203913 3.20877975 92.2311095 3.21169281 91.16893959 C3.22651104 85.72989284 3.23585375 80.2908715 3.24023438 74.85180664 C3.24574441 69.29034358 3.26987591 63.72912212 3.29820633 58.1677351 C3.31694775 53.83247712 3.32204404 49.49727663 3.32357025 45.16198158 C3.32656303 43.11257903 3.33447454 41.06317663 3.34775543 39.01381493 C3.41366259 28.07925652 3.02197586 17.81374473 0.64471436 7.11567688 C0 4 0 4 0 0 Z " fill="#7E91D1" transform="translate(192,25)"/>
<path d="M0 0 C14.26770386 0 14.26770386 0 21.375 1.4375 C22.10976562 1.55287109 22.84453125 1.66824219 23.6015625 1.78710938 C31.25200072 3.31589592 39.70938902 7.08715161 45 13 C46.89301463 18.28374522 46.64891301 23.24813643 46.3671875 28.75390625 C46.34103017 30.26552603 46.32112311 31.77726565 46.30715942 33.28904724 C46.25403679 37.24284482 46.11689331 41.18928318 45.96130371 45.14019775 C45.81731183 49.18164467 45.75398762 53.22429823 45.68359375 57.26757812 C45.53404817 65.18174027 45.29559446 73.0899517 45 81 C44.34 81 43.68 81 43 81 C43 58.56 43 36.12 43 13 C40.525 12.505 40.525 12.505 38 12 C37.34 11.34 36.68 10.68 36 10 C33.68234271 9.28072705 31.34904126 8.6090107 29 8 C29 7.34 29 6.68 29 6 C19.76 4.35 10.52 2.7 1 1 C1 23.11 1 45.22 1 68 C6.28 68 11.56 68 17 68 C20.96809635 69.22095272 24.33847856 70.26232881 28 72 C28 72.66 28 73.32 28 74 C27.40316406 73.89042969 26.80632812 73.78085938 26.19140625 73.66796875 C17.46718365 72.07349716 8.73442797 70.54136964 0 69 C0 46.23 0 23.46 0 0 Z " fill="#5D6DC8" transform="translate(52,54)"/>
<path d="M0 0 C1.98 0 3.96 0 6 0 C6 23.76 6 47.52 6 72 C-10.5 72 -27 72 -44 72 C-44 73.65 -44 75.3 -44 77 C-45.125 78.78125 -45.125 78.78125 -47 80 C-49.8125 80.46875 -49.8125 80.46875 -53 80.5 C-54.051875 80.5309375 -55.10375 80.561875 -56.1875 80.59375 C-59 80 -59 80 -60.875 77.59375 C-62 75 -62 75 -62 73 C-60.68 73 -59.36 73 -58 73 C-58 73.66 -58 74.32 -58 75 C-51.73461424 75.81722423 -48.58741022 73.77524685 -43.375 70.40625 C-40.58742864 68.75571433 -38.2413888 68.08311253 -35 68 C-34.505 68.495 -34.505 68.495 -34 69 C-31.11768818 69.16022369 -28.2560208 69.2596158 -25.37109375 69.31640625 C-24.60543091 69.33505737 -23.83976807 69.3537085 -23.05090332 69.3729248 C-20.17989068 69.44142745 -17.30868067 69.50144504 -14.4375 69.5625 C-8.023125 69.706875 -1.60875 69.85125 5 70 C5 47.23 5 24.46 5 1 C3.68 1 2.36 1 1 1 C1 20.47 1 39.94 1 60 C0.67 60 0.34 60 0 60 C0 40.2 0 20.4 0 0 Z " fill="#7D8AD2" transform="translate(153,67)"/>
<path d="M0 0 C2.97 0 5.94 0 9 0 C9 25.41 9 50.82 9 77 C7.68 76.67 6.36 76.34 5 76 C4.67 52.24 4.34 28.48 4 4 C2.35 3.67 0.7 3.34 -1 3 C-0.67 2.01 -0.34 1.02 0 0 Z " fill="#F9FBFE" transform="translate(155,63)"/>
<path d="M0 0 C1.32 0 2.64 0 4 0 C4 19.14 4 38.28 4 58 C3.67 58 3.34 58 3 58 C3 39.85 3 21.7 3 3 C2.34 3 1.68 3 1 3 C1 24.45 1 45.9 1 68 C12.22 67.67 23.44 67.34 35 67 C23.46666146 64.55059583 23.46666146 64.55059583 12.0625 63.3125 C10.89847656 63.24675781 9.73445313 63.18101562 8.53515625 63.11328125 C7.69855469 63.07589844 6.86195312 63.03851563 6 63 C6.33 62.01 6.66 61.02 7 60 C37.76301041 63.82225781 37.76301041 63.82225781 46 70 C30.82 70 15.64 70 0 70 C0 46.9 0 23.8 0 0 Z " fill="#4A5CD0" transform="translate(41,68)"/>
<path d="M0 0 C1.32 0 2.64 0 4 0 C4 22.77 4 45.54 4 69 C-8.87 69 -21.74 69 -35 69 C-35.33 68.01 -35.66 67.02 -36 66 C-26.59022627 63.35910982 -17.42327501 61.48029097 -7.67822266 60.59619141 C-4.03279868 60.58267709 -4.03279868 60.58267709 -1 59 C-0.87662826 57.15968011 -0.82208692 55.31470589 -0.79467773 53.47045898 C-0.77473251 52.28931015 -0.75478729 51.10816132 -0.73423767 49.89122009 C-0.70916893 47.96313255 -0.70916893 47.96313255 -0.68359375 45.99609375 C-0.66281265 44.68794205 -0.64203156 43.37979034 -0.62062073 42.03199768 C-0.565337 38.54844553 -0.51595569 35.0648334 -0.46777344 31.58117676 C-0.41760426 28.0286727 -0.36189433 24.4762561 -0.30664062 20.92382812 C-0.19898209 13.94929454 -0.09755433 6.97468202 0 0 Z M1 3 C0.98969254 3.71187973 0.97938507 4.42375946 0.96876526 5.1572113 C0.87095102 11.85282826 0.76845996 18.54835518 0.66066074 25.24381924 C0.6054012 28.6863574 0.55197653 32.128904 0.50268555 35.5715332 C0.44599199 39.52564526 0.38142505 43.47960944 0.31640625 47.43359375 C0.29133751 49.29605995 0.29133751 49.29605995 0.26576233 51.19615173 C0.24581711 52.33725906 0.22587189 53.47836639 0.20532227 54.65405273 C0.18977798 55.664431 0.1742337 56.67480927 0.15821838 57.71580505 C0 60 0 60 -1 61 C-4.24541714 61.41607912 -7.48871955 61.76827753 -10.74609375 62.07421875 C-15.67830916 62.61410875 -19.52309405 63.84967509 -24 66 C-24 66.66 -24 67.32 -24 68 C-15.09 68 -6.18 68 3 68 C3 46.55 3 25.1 3 3 C2.34 3 1.68 3 1 3 Z " fill="#4A5CCD" transform="translate(154,68)"/>
<path d="M0 0 C0.33 0 0.66 0 1 0 C1.01030746 0.97496933 1.02061493 1.94993866 1.03123474 2.95445251 C1.12879945 12.12236314 1.23151702 21.29020333 1.33933926 30.45799923 C1.39461048 35.17176359 1.44803705 39.8855341 1.49731445 44.59936523 C1.54489624 49.14460904 1.59723654 53.68977496 1.65294075 58.23492622 C1.67339243 59.97292719 1.69210076 61.71094954 1.70907402 63.44898796 C1.73305604 65.87484377 1.7631186 68.30055101 1.79467773 70.72631836 C1.8004332 71.45208069 1.80618866 72.17784302 1.81211853 72.92559814 C1.5763987 76.24741016 1.5763987 76.24741016 3 79 C4.54436495 79.09138373 6.09283289 79.11462658 7.63989258 79.11010742 C8.62794388 79.11068649 9.61599518 79.11126556 10.63398743 79.11186218 C11.70996689 79.10975235 12.78594635 79.10764252 13.89453125 79.10546875 C16.15170227 79.11892479 18.40886439 79.13394794 20.66601562 79.15039062 C24.2412789 79.17324439 27.81554218 79.18748941 31.39086914 79.17504883 C34.83032815 79.16625469 38.26777975 79.19508677 41.70703125 79.23046875 C42.77693802 79.21823776 43.84684479 79.20600677 44.94917297 79.19340515 C52.21353873 79.31240054 52.21353873 79.31240054 54.58627319 81.38687134 C55.70581055 83.0480957 55.70581055 83.0480957 57 86 C55.02 86.99 55.02 86.99 53 88 C52.67 86.35 52.34 84.7 52 83 C50.90429688 83.01160156 49.80859375 83.02320313 48.6796875 83.03515625 C38.42329794 83.10906226 28.16777715 82.99841251 17.91461182 82.73654175 C16.55449611 82.70383824 15.19424718 82.67627321 13.83392334 82.65383911 C11.90721419 82.62068682 9.98089936 82.56662886 8.0546875 82.51171875 C6.37608643 82.47244263 6.37608643 82.47244263 4.66357422 82.43237305 C3.78459473 82.28968994 2.90561523 82.14700684 2 82 C-0.44029778 78.33955333 -0.26882249 75.6361545 -0.22705078 71.4074707 C-0.22734283 70.63650055 -0.22763489 69.8655304 -0.22793579 69.07119751 C-0.22654233 66.52261098 -0.21098049 63.97431672 -0.1953125 61.42578125 C-0.19158242 59.65887105 -0.18873543 57.89195878 -0.18673706 56.12504578 C-0.17910017 51.47417492 -0.1594512 46.82342894 -0.1373291 42.17260742 C-0.11687188 37.42693776 -0.10773561 32.68124792 -0.09765625 27.93554688 C-0.07620537 18.62364304 -0.04206873 9.31183191 0 0 Z " fill="#3D52BA" transform="translate(33,64)"/>
<path d="M0 0 C0 23.1 0 46.2 0 70 C-6.93 70.99 -6.93 70.99 -14 72 C-17.02880998 72.62129436 -20.00501457 73.2584949 -23 74 C-23.69738281 74.165 -24.39476563 74.33 -25.11328125 74.5 C-29.15151942 75.47343594 -33.07985521 76.62794932 -37 78 C-35.99981395 75.34923369 -35.47950554 74.22787511 -32.87109375 72.98828125 C-32.06800781 72.76527344 -31.26492187 72.54226562 -30.4375 72.3125 C-27.45226 71.62518751 -27.45226 71.62518751 -25 70 C-22.66666667 69.66666667 -20.33333333 69.33333333 -18 69 C-17.67 68.67 -17.34 68.34 -17 68 C-12.38 68 -7.76 68 -3 68 C-3 57.11 -3 46.22 -3 35 C-2.67 35 -2.34 35 -2 35 C-1.67 23.78 -1.34 12.56 -1 1 C-2.98 1.33 -4.96 1.66 -7 2 C-9.67810075 2.11196073 -12.31732686 2.04625299 -15 2 C-15 1.67 -15 1.34 -15 1 C-9.75103182 -0.07671142 -5.60877798 0 0 0 Z " fill="#6F82E4" transform="translate(148,53)"/>
<path d="M0 0 C3.94949704 0.62816498 7.19892028 1.8645529 10.8125 3.5625 C11.78832031 4.01753906 12.76414063 4.47257813 13.76953125 4.94140625 C14.50558594 5.29074219 15.24164063 5.64007813 16 6 C15.01 7.65 14.02 9.3 13 11 C14.98 11 16.96 11 19 11 C19 11.99 19 12.98 19 14 C20.32 14.33 21.64 14.66 23 15 C20.69 14.67 18.38 14.34 16 14 C16 13.34 16 12.68 16 12 C14.35 12.33 12.7 12.66 11 13 C10.505 12.01 10.505 12.01 10 11 C-6.17 11 -22.34 11 -39 11 C-39 10.67 -39 10.34 -39 10 C-16.725 9.505 -16.725 9.505 6 9 C2.37 7.68 -1.26 6.36 -5 5 C-3.68 4.67 -2.36 4.34 -1 4 C-0.67 2.68 -0.34 1.36 0 0 Z " fill="#DCE3FB" transform="translate(79,128)"/>
<path d="M0 0 C0.99 0.33 1.98 0.66 3 1 C2.67 1.66 2.34 2.32 2 3 C1.34 3 0.68 3 0 3 C0 23.13 0 43.26 0 64 C1.98 64 3.96 64 6 64 C6 64.66 6 65.32 6 66 C3.36 67.32 0.72 68.64 -2 70 C-2.04628239 61.16846012 -2.08184825 52.3369618 -2.10362434 43.50532722 C-2.11407426 39.40471243 -2.12825537 35.30418042 -2.15087891 31.20361328 C-2.1725644 27.24844419 -2.18455952 23.29335489 -2.18975449 19.33813095 C-2.19345799 17.82700214 -2.20068975 16.31587783 -2.21146011 14.80478287 C-2.22591823 12.69283768 -2.22798037 10.58122476 -2.22705078 8.46923828 C-2.231492 7.26566681 -2.23593323 6.06209534 -2.24050903 4.822052 C-2 2 -2 2 0 0 Z " fill="#4A5FDF" transform="translate(105,65)"/>
<path d="M0 0 C0 22.44 0 44.88 0 68 C-0.33 68 -0.66 68 -1 68 C-1.75681015 46.32423282 -2.14924786 24.68915824 -2 3 C-4.03633929 2.96589681 -6.07284809 2.94184654 -8.109375 2.921875 C-9.8104541 2.90012207 -9.8104541 2.90012207 -11.54589844 2.87792969 C-19.62233577 3.16335651 -27.01870782 5.65765988 -34.16015625 9.328125 C-36 10 -36 10 -39 9 C-26.03895533 2.02309723 -14.69881842 0 0 0 Z " fill="#4A5ECF" transform="translate(147,54)"/>
<path d="M0 0 C1.07628662 0.02927078 2.15257324 0.05854156 3.26147461 0.08869934 C6.6755892 0.18711781 10.0871771 0.32151007 13.5 0.45703125 C15.82414472 0.53037928 18.14836518 0.60136789 20.47265625 0.66992188 C26.14959904 0.8424932 31.82490518 1.04455811 37.5 1.26953125 C37.5 1.59953125 37.5 1.92953125 37.5 2.26953125 C21 2.26953125 4.5 2.26953125 -12.5 2.26953125 C-12.5 3.91953125 -12.5 5.56953125 -12.5 7.26953125 C-13.625 9.05078125 -13.625 9.05078125 -15.5 10.26953125 C-18.3125 10.73828125 -18.3125 10.73828125 -21.5 10.76953125 C-22.551875 10.80046875 -23.60375 10.83140625 -24.6875 10.86328125 C-27.5 10.26953125 -27.5 10.26953125 -29.375 7.86328125 C-30.5 5.26953125 -30.5 5.26953125 -30.5 3.26953125 C-29.18 3.26953125 -27.86 3.26953125 -26.5 3.26953125 C-26.5 3.92953125 -26.5 4.58953125 -26.5 5.26953125 C-21.8867542 5.75007769 -19.6662314 5.62586209 -15.96875 2.7668457 C-10.76548255 -0.61322311 -6.03543806 -0.27924695 0 0 Z " fill="#C9D1F7" transform="translate(121.5,136.73046875)"/>
<path d="M0 0 C8.83982245 0.84083418 17.5295949 1.92425665 26.1875 3.9375 C26.88093506 4.09508789 27.57437012 4.25267578 28.28881836 4.41503906 C32.52037342 5.44393222 36.18166897 6.91565444 40 9 C40 9.33 40 9.66 40 10 C24.82 10 9.64 10 -6 10 C-6 9.67 -6 9.34 -6 9 C6.21 9 18.42 9 31 9 C31 8.34 31 7.68 31 7 C20.65031721 5.00774871 10.54641106 3.48470035 0 3 C0 2.01 0 1.02 0 0 Z " fill="#5F6FCF" transform="translate(47,128)"/>
<path d="M0 0 C2.475 0.495 2.475 0.495 5 1 C5 1.66 5 2.32 5 3 C8.80896563 3.89456983 12.29504848 4.10423561 16.203125 4.0625 C17.4710791 4.05412109 18.7390332 4.04574219 20.04541016 4.03710938 C21.06915741 4.02780396 21.06915741 4.02780396 22.11358643 4.01831055 C38.28981887 3.87966901 54.45284647 4.149263 70.625 4.5 C72.29326843 4.53601318 72.29326843 4.53601318 73.99523926 4.57275391 C80.33027186 4.71043637 86.6651748 4.85309644 93 5 C93 5.33 93 5.66 93 6 C81.90795969 6.09278389 70.8160121 6.16380771 59.72366238 6.20724869 C54.5727153 6.2281009 49.42203423 6.25637547 44.27124023 6.30175781 C39.29806474 6.34529974 34.32514472 6.36915491 29.35179329 6.37950897 C27.45680789 6.38688535 25.56183607 6.40128977 23.66695976 6.42292023 C21.00740497 6.45206531 18.34889843 6.45595139 15.68920898 6.45410156 C14.9102124 6.46848267 14.13121582 6.48286377 13.32861328 6.49768066 C7.79732821 6.45620087 4.60354505 5.06955266 0 2 C0 1.34 0 0.68 0 0 Z " fill="#4962EA" transform="translate(27,175)"/>
<path d="M0 0 C-0.556875 0.20753906 -1.11375 0.41507813 -1.6875 0.62890625 C-7.85823447 3.12013182 -12.30391694 6.31382429 -17 11 C-17.56976563 11.55816406 -18.13953125 12.11632813 -18.7265625 12.69140625 C-22.76921844 16.98299421 -24.53389481 21.32848782 -26 27 C-26.66 27 -27.32 27 -28 27 C-27.35645881 19.27750574 -24.45694463 12.60442962 -19 7 C-7.14732019 -2.08780995 -7.14732019 -2.08780995 0 0 Z " fill="#4B63ED" transform="translate(41,17)"/>
<path d="M0 0 C1.32 0 2.64 0 4 0 C3.67657623 0.8623526 3.35315247 1.7247052 3.01992798 2.6131897 C2.00157439 5.99477203 1.72567087 8.67200155 1.68115234 12.18896484 C1.66128265 13.38975677 1.64141296 14.59054871 1.62094116 15.82772827 C1.60938995 17.10918732 1.59783875 18.39064636 1.5859375 19.7109375 C1.56720789 21.04758882 1.54763316 22.38422855 1.5272522 23.72085571 C1.47611399 27.2224033 1.43639099 30.72398914 1.39910889 34.22570801 C1.35895373 37.80551474 1.30791417 41.38516485 1.2578125 44.96484375 C1.16127046 51.97644781 1.07679683 58.98815262 1 66 C4.3 66 7.6 66 11 66 C11 66.33 11 66.66 11 67 C7.37 67 3.74 67 0 67 C0 44.89 0 22.78 0 0 Z " fill="#485DE1" transform="translate(53,55)"/>
<path d="M0 0 C1.13179687 0.01788574 2.26359375 0.03577148 3.4296875 0.05419922 C7.3078822 0.12266735 11.18493591 0.21489376 15.0625 0.3125 C16.32392822 0.33489746 17.58535645 0.35729492 18.88500977 0.38037109 C30.64517666 0.72803973 30.64517666 0.72803973 36 4 C36.495 5.485 36.495 5.485 37 7 C35.5410574 6.52269162 34.08286504 6.04308958 32.625 5.5625 C31.40683594 5.16224609 31.40683594 5.16224609 30.1640625 4.75390625 C28 4 28 4 26 3 C24.2134547 2.88055524 22.42263749 2.82277682 20.63232422 2.79467773 C18.95080765 2.7647599 18.95080765 2.7647599 17.23532104 2.73423767 C15.41340744 2.70916893 15.41340744 2.70916893 13.5546875 2.68359375 C12.31453888 2.66281265 11.07439026 2.64203156 9.79666138 2.62062073 C6.49888177 2.56622295 3.2010728 2.51599905 -0.09680176 2.46777344 C-3.46172653 2.41754766 -6.8265605 2.36186723 -10.19140625 2.30664062 C-16.79419854 2.19938443 -23.39705872 2.09762811 -30 2 C-30 1.67 -30 1.34 -30 1 C-19.97108078 0.12246957 -10.06606776 -0.188373 0 0 Z " fill="#7791FB" transform="translate(134,13)"/>
<path d="M0 0 C0.33 0 0.66 0 1 0 C1.15380774 8.55342219 1.30198892 17.10691534 1.4429636 25.66055775 C1.50859921 29.63223931 1.57618141 33.60386797 1.64819336 37.57543945 C1.71760159 41.40734461 1.78192119 45.23930433 1.84269524 49.07135582 C1.86679345 50.53422847 1.89273327 51.99707196 1.92053413 53.45987892 C1.95912361 55.50681628 1.99119743 57.55375889 2.02172852 59.60083008 C2.04171402 60.76665115 2.06169952 61.93247223 2.08229065 63.13362122 C2 66 2 66 1 69 C1.33 69.99 1.66 70.98 2 72 C1.25 74.625 1.25 74.625 0 77 C-1.485 77.495 -1.485 77.495 -3 78 C-2.86042877 77.38843552 -2.72085754 76.77687103 -2.57705688 76.14677429 C-0.86215408 67.85934343 -0.65385209 59.69448998 -0.5859375 51.26953125 C-0.56718416 49.78308589 -0.5476078 48.29665072 -0.5272522 46.81022644 C-0.47636419 42.93555764 -0.43650946 39.06085448 -0.39910889 35.18603516 C-0.3587943 31.21703906 -0.30782861 27.24818047 -0.2578125 23.27929688 C-0.16156778 15.51962627 -0.07700195 7.75988798 0 0 Z " fill="#728CFA" transform="translate(187,85)"/>
<path d="M0 0 C-1.98 0.99 -3.96 1.98 -6 3 C-5.01 3 -4.02 3 -3 3 C-0.8125 4 -0.8125 4 1 5 C0.21496094 5.25394531 -0.57007812 5.50789063 -1.37890625 5.76953125 C-7.04105949 7.62449433 -12.57474966 9.53397712 -18 12 C-17.835 11.236875 -17.67 10.47375 -17.5 9.6875 C-16.90854604 6.96403764 -16.90854604 6.96403764 -17 4 C-14.92227529 3.13227971 -12.83756823 2.28126381 -10.75 1.4375 C-9.58984375 0.96183594 -8.4296875 0.48617187 -7.234375 -0.00390625 C-4.13733356 -0.95770524 -2.92678299 -1.20983356 0 0 Z " fill="#E0E7FC" transform="translate(127,51)"/>
<path d="M0 0 C12.54104138 -0.63055515 23.80160427 1.20036819 36 4 C36 4.66 36 5.32 36 6 C38.31 6.33 40.62 6.66 43 7 C43 7.66 43 8.32 43 9 C43.99 9 44.98 9 46 9 C46 9.66 46 10.32 46 11 C46.66 11.33 47.32 11.66 48 12 C47.34 12.33 46.68 12.66 46 13 C43.875 12.0625 43.875 12.0625 42 11 C42 10.34 42 9.68 42 9 C40.80375 8.7525 39.6075 8.505 38.375 8.25 C34.37433139 7.38028943 30.5291989 6.22808135 26.625 5 C17.8961697 2.43494899 9.03949711 1.73241128 0 1 C0 0.67 0 0.34 0 0 Z " fill="#5366D1" transform="translate(48,46)"/>
<path d="M0 0 C6.11770635 -0.22156683 11.11575377 0.11260027 17 2 C19.32787927 2.36950465 21.66045145 2.71352467 24 3 C24.33 4.32 24.66 5.64 25 7 C22.3333581 8.33332095 20.83319697 7.67102033 18 7 C18 6.34 18 5.68 18 5 C17.11957031 4.96261719 16.23914063 4.92523438 15.33203125 4.88671875 C14.17058594 4.82097656 13.00914063 4.75523437 11.8125 4.6875 C10.66394531 4.62949219 9.51539062 4.57148438 8.33203125 4.51171875 C4.84327353 3.97593064 2.82833708 3.07198329 0 1 C0 0.67 0 0.34 0 0 Z " fill="#F7FBFE" transform="translate(55,125)"/>
<path d="M0 0 C3 1 3 1 4.125 3.125 C5.93744455 9.08017494 6.16348962 15.06554219 6.125 21.25 C6.12306641 22.01489746 6.12113281 22.77979492 6.11914062 23.56787109 C6.05473822 32.39278929 5.5467199 41.19390441 5 50 C4.67 50 4.34 50 4 50 C3.98541748 48.84064941 3.97083496 47.68129883 3.95581055 46.48681641 C3.89739701 42.14407045 3.82017038 37.80181989 3.73754883 33.45947266 C3.70450053 31.58781027 3.6764075 29.71605303 3.65356445 27.84423828 C3.56432612 13.6496228 3.56432612 13.6496228 0 0 Z " fill="#748DFA" transform="translate(183,32)"/>
<path d="M0 0 C0 0.33 0 0.66 0 1 C-9.41002278 3.11161731 -9.41002278 3.11161731 -14 4 C-14 4.66 -14 5.32 -14 6 C-12.68 6.33 -11.36 6.66 -10 7 C-14.95 7 -19.9 7 -25 7 C-25.33 6.01 -25.66 5.02 -26 4 C-8.85106383 -0.76595745 -8.85106383 -0.76595745 0 0 Z " fill="#485FD3" transform="translate(144,130)"/>
<path d="M0 0 C0.99 0.33 1.98 0.66 3 1 C2.51391769 1.36680374 2.02783539 1.73360748 1.52702332 2.11152649 C-0.65225925 4.80665063 -0.39858332 6.77578185 -0.43237305 10.21557617 C-0.45216721 11.4966777 -0.47196136 12.77777924 -0.49235535 14.09770203 C-0.49912514 15.49612278 -0.50557201 16.89454512 -0.51171875 18.29296875 C-0.52856354 19.72359261 -0.54671351 21.15420164 -0.56611633 22.58479309 C-0.61364482 26.34780242 -0.64343541 30.11075169 -0.66955566 33.8739624 C-0.69934705 37.71492377 -0.74588218 41.55567807 -0.79101562 45.39648438 C-0.877081 52.93088691 -0.94441153 60.46530445 -1 68 C-0.34 68.33 0.32 68.66 1 69 C-0.485 69.495 -0.485 69.495 -2 70 C-2.04628239 61.16846012 -2.08184825 52.3369618 -2.10362434 43.50532722 C-2.11407426 39.40471243 -2.12825537 35.30418042 -2.15087891 31.20361328 C-2.1725644 27.24844419 -2.18455952 23.29335489 -2.18975449 19.33813095 C-2.19345799 17.82700214 -2.20068975 16.31587783 -2.21146011 14.80478287 C-2.22591823 12.69283768 -2.22798037 10.58122476 -2.22705078 8.46923828 C-2.231492 7.26566681 -2.23593323 6.06209534 -2.24050903 4.822052 C-2 2 -2 2 0 0 Z " fill="#5A6AD1" transform="translate(105,65)"/>
<path d="M0 0 C0 0.33 0 0.66 0 1 C-1.1859375 1.09796875 -2.371875 1.1959375 -3.59375 1.296875 C-14.42080433 2.26847605 -24.53908559 4.02445101 -35 7 C-35.66193359 7.18820313 -36.32386719 7.37640625 -37.00585938 7.5703125 C-38.67119648 8.04469137 -40.33568623 8.52204323 -42 9 C-41.08486681 6.71216703 -40.34515354 5.26550272 -38.375 3.75 C-34.86146845 2.64046372 -31.67700382 2.87743321 -28 3 C-28 2.34 -28 1.68 -28 1 C-18.66013591 -0.20514375 -9.39792784 -0.09213655 0 0 Z " fill="#4E60D0" transform="translate(152,46)"/>
<path d="M0 0 C0 0.66 0 1.32 0 2 C-0.77923828 2.36351562 -0.77923828 2.36351562 -1.57421875 2.734375 C-9.45528964 6.52195066 -13.61117478 10.50049865 -18 18 C-18.66 18.99 -19.32 19.98 -20 21 C-20.25 14.375 -20.25 14.375 -18 11 C-17.34 11 -16.68 11 -16 11 C-16 10.34 -16 9.68 -16 9 C-15.34 9 -14.68 9 -14 9 C-13.67 8.01 -13.34 7.02 -13 6 C-11.2578125 4.6484375 -11.2578125 4.6484375 -9.125 3.375 C-8.42632812 2.94960938 -7.72765625 2.52421875 -7.0078125 2.0859375 C-4.66137507 0.81685266 -2.69201573 0 0 0 Z " fill="#708BF8" transform="translate(34,16)"/>
<path d="M0 0 C1.32 0 2.64 0 4 0 C4 0.66 4 1.32 4 2 C9.32170494 2.29562367 9.32170494 2.29562367 14 0 C14.99 0 15.98 0 17 0 C15.25 4.875 15.25 4.875 13 6 C8.55630163 6.52329267 5.12876551 6.82592598 1.4375 4.125 C0 2 0 2 0 0 Z " fill="#5E70CA" transform="translate(91,140)"/>
<path d="M0 0 C0.66 0.33 1.32 0.66 2 1 C1.67 5.62 1.34 10.24 1 15 C-2.3 15 -5.6 15 -9 15 C-9 14.34 -9 13.68 -9 13 C-6.29120665 11.64560332 -3.99066732 11.93498549 -1 12 C-1.01160156 11.21753906 -1.02320313 10.43507813 -1.03515625 9.62890625 C-1.04417969 8.61699219 -1.05320312 7.60507812 -1.0625 6.5625 C-1.07410156 5.55316406 -1.08570313 4.54382812 -1.09765625 3.50390625 C-1 1 -1 1 0 0 Z " fill="#6272D9" transform="translate(45,47)"/>
<path d="M0 0 C0.33 0 0.66 0 1 0 C1.48930498 8.54924526 1.30610786 16.37127806 -3 24 C-5.140625 25.8046875 -5.140625 25.8046875 -7 27 C-6.36835103 23.99308773 -5.60929262 22.32847169 -4 19.5625 C-1.49862462 14.78550513 -1.39154108 10.07166887 -1.17578125 4.7578125 C-1 2 -1 2 0 0 Z " fill="#4B64EA" transform="translate(185,144)"/>
<path d="M0 0 C0.99 0.33 1.98 0.66 3 1 C1.02 1.99 1.02 1.99 -1 3 C-1 3.66 -1 4.32 -1 5 C-8.44638025 9.61280192 -14.29942593 10.6727248 -23 10 C-20 8 -20 8 -16.8125 8.125 C-10.85007909 7.92951079 -6.7357758 5.42719344 -2.1875 1.6875 C-1.1046875 0.8521875 -1.1046875 0.8521875 0 0 Z " fill="#4C64EA" transform="translate(175,171)"/>
<path d="M0 0 C2.38833147 0.14860808 4.77990874 0.24778427 7.171875 0.31640625 C7.8542926 0.33718735 8.53671021 0.35796844 9.23980713 0.37937927 C11.40977356 0.44452052 13.57985624 0.50359404 15.75 0.5625 C17.22527221 0.60571897 18.70053287 0.64933432 20.17578125 0.69335938 C23.78373166 0.80016518 27.39181133 0.90153153 31 1 C31 1.33 31 1.66 31 2 C18.13 2 5.26 2 -8 2 C-6.09087067 -1.81825867 -3.48307294 -0.89709816 0 0 Z " fill="#7683CF" transform="translate(119,136)"/>
<path d="M0 0 C8.57069757 -0.53847315 15.13664668 0.5326946 23 4 C23 4.66 23 5.32 23 6 C15.22767795 4.69951304 7.62273755 2.99548103 0 1 C0 0.67 0 0.34 0 0 Z " fill="#5F71D7" transform="translate(57,122)"/>
<path d="M0 0 C18.81 0.495 18.81 0.495 38 1 C38 1.33 38 1.66 38 2 C37.25838623 2.02505615 36.51677246 2.0501123 35.75268555 2.07592773 C32.39744672 2.19186132 29.04249056 2.31459985 25.6875 2.4375 C24.52025391 2.47681641 23.35300781 2.51613281 22.15039062 2.55664062 C21.03212891 2.59853516 19.91386719 2.64042969 18.76171875 2.68359375 C17.73006592 2.72025146 16.69841309 2.75690918 15.63549805 2.79467773 C12.89251742 2.90161242 12.89251742 2.90161242 10 4 C7.51953125 3.44140625 7.51953125 3.44140625 4.8125 2.5625 C3.91144531 2.27503906 3.01039062 1.98757812 2.08203125 1.69140625 C1.39496094 1.46324219 0.70789062 1.23507813 0 1 C0 0.67 0 0.34 0 0 Z " fill="#748FF9" transform="translate(34,181)"/>
<path d="M0 0 C0.33 0.99 0.66 1.98 1 3 C1.66 3 2.32 3 3 3 C3.27263672 4.15628906 3.27263672 4.15628906 3.55078125 5.3359375 C3.80214844 6.33882812 4.05351563 7.34171875 4.3125 8.375 C4.55613281 9.37273437 4.79976563 10.37046875 5.05078125 11.3984375 C5.82193858 14.3084986 5.82193858 14.3084986 9 16 C10.75 19 10.75 19 12 22 C11.67 22.66 11.34 23.32 11 24 C4.85210115 17.00590159 0 9.58099774 0 0 Z " fill="#8A9AD7" transform="translate(2,157)"/>
<path d="M0 0 C-2.59887937 2.59591261 -3.93555933 2.99562816 -7.66699219 3.2487793 C-9.12750209 3.20655996 -10.58758882 3.14740007 -12.046875 3.07421875 C-13.20367767 3.03455742 -13.20367767 3.03455742 -14.3838501 2.99409485 C-16.84003831 2.90652497 -19.29471558 2.79731258 -21.75 2.6875 C-23.4179151 2.62422086 -25.08588449 2.56235548 -26.75390625 2.50195312 C-30.83674794 2.35101594 -34.9183702 2.18066749 -39 2 C-39 1.67 -39 1.34 -39 1 C-38.0212793 0.97494385 -37.04255859 0.9498877 -36.03417969 0.92407227 C-32.39619296 0.82976017 -28.75838657 0.72959797 -25.12060547 0.62768555 C-23.54740626 0.58442662 -21.97416283 0.54274526 -20.40087891 0.50268555 C-18.13690885 0.44476338 -15.87315949 0.38113286 -13.609375 0.31640625 C-12.55759064 0.29133751 -12.55759064 0.29133751 -11.48455811 0.26576233 C-0.15296091 -0.07648045 -0.15296091 -0.07648045 0 0 Z " fill="#748EFB" transform="translate(166,181)"/>
<path d="M0 0 C4.3992796 0.58765887 7.51891411 2.23959717 11.3125 4.5 C12.38113281 5.1290625 13.44976562 5.758125 14.55078125 6.40625 C15.35902344 6.9321875 16.16726562 7.458125 17 8 C17 8.33 17 8.66 17 9 C14.6875 9.1875 14.6875 9.1875 12 9 C11 8 10 7 9 6 C6.69011685 5.25613932 4.35684056 4.57809297 2 4 C2 3.34 2 2.68 2 2 C1.34 2 0.68 2 0 2 C0 1.34 0 0.68 0 0 Z " fill="#5465CC" transform="translate(79,58)"/>
<path d="M0 0 C0.7734375 0.433125 0.7734375 0.433125 1.5625 0.875 C4.62356725 2.28780027 7.74944918 3.1248517 11 4 C7.72939407 6.18040395 7.23625511 6.22083539 3.5625 5.75 C2.80066406 5.66234375 2.03882813 5.5746875 1.25390625 5.484375 C-1.09438552 4.97971611 -2.9079315 4.16278978 -5 3 C-4.360625 2.690625 -3.72125 2.38125 -3.0625 2.0625 C-1.06389179 1.1654837 -1.06389179 1.1654837 0 0 Z " fill="#889BDD" transform="translate(29,186)"/>
<path d="M0 0 C1.1059741 3.28823173 0.89627272 5.0871965 -0.3125 8.3125 C-1.70828884 12.17973147 -2.90409427 16.03787928 -4 20 C-4.33 20 -4.66 20 -5 20 C-5.40735632 12.53180074 -4.19567905 6.29351857 0 0 Z " fill="#8E9ED7" transform="translate(7,24)"/>
<path d="M0 0 C7.50661595 0.53618685 13.75410995 2.35057994 19 8 C18.01 8.495 18.01 8.495 17 9 C16.175 8.38125 15.35 7.7625 14.5 7.125 C10.8487774 4.66173499 7.28637498 3.8868362 3 3 C3 2.34 3 1.68 3 1 C2.01 0.67 1.02 0.34 0 0 Z " fill="#4B64E9" transform="translate(157,16)"/>
<path d="M0 0 C3.60389664 -0.11601004 7.20731467 -0.18718408 10.8125 -0.25 C11.83666016 -0.28351563 12.86082031 -0.31703125 13.91601562 -0.3515625 C14.89892578 -0.36445313 15.88183594 -0.37734375 16.89453125 -0.390625 C17.80050049 -0.41157227 18.70646973 -0.43251953 19.63989258 -0.45410156 C22 0 22 0 23.8190918 2.02441406 C24.2087915 2.67635742 24.59849121 3.32830078 25 4 C23.02 4.99 23.02 4.99 21 6 C20.67 4.35 20.34 2.7 20 1 C13.4 1 6.8 1 0 1 C0 0.67 0 0.34 0 0 Z " fill="#4760ED" transform="translate(65,146)"/>
<path d="M0 0 C0.99 0.66 1.98 1.32 3 2 C-3.16926733 5.65586212 -7.83575954 6.8602004 -15 6 C-18.125 5 -18.125 5 -20 4 C-19.67 3.34 -19.34 2.68 -19 2 C-18.34 2.33 -17.68 2.66 -17 3 C-12.66830598 4.44389801 -8.34650767 5.14100796 -4.15234375 3.1015625 C-2.31447388 1.91077601 -2.31447388 1.91077601 0 0 Z " fill="#5263D2" transform="translate(110,148)"/>
<path d="M0 0 C3.3 0 6.6 0 10 0 C10.33 1.65 10.66 3.3 11 5 C6.40317854 3.85079464 3.87211123 2.90408342 0 0 Z " fill="#5C70DA" transform="translate(84,129)"/>
<path d="M0 0 C1.21236328 0.01353516 1.21236328 0.01353516 2.44921875 0.02734375 C3.37154297 0.04474609 3.37154297 0.04474609 4.3125 0.0625 C1.29759443 2.07243705 -0.9024927 2.78873341 -4.375 3.6875 C-5.86580078 4.07808594 -5.86580078 4.07808594 -7.38671875 4.4765625 C-8.14597656 4.66992188 -8.90523438 4.86328125 -9.6875 5.0625 C-8.875 3.125 -8.875 3.125 -7.6875 1.0625 C-4.80538698 0.10179566 -2.98899956 -0.04331883 0 0 Z " fill="#5C6ED5" transform="translate(120.6875,125.9375)"/>
<path d="M0 0 C4.57167782 5.61069551 5.23901086 9.94917972 5 17 C4.67 17 4.34 17 4 17 C3.67 15.35 3.34 13.7 3 12 C2.67 12 2.34 12 2 12 C0.86235649 7.73383684 0 4.43513689 0 0 Z " fill="#8DA0D3" transform="translate(192,25)"/>
<path d="M0 0 C0.99 0.33 1.98 0.66 3 1 C-0.63 2.98 -4.26 4.96 -8 7 C-8.99 6.01 -9.98 5.02 -11 4 C-10.28972656 3.79503906 -9.57945313 3.59007812 -8.84765625 3.37890625 C-7.92855469 3.10949219 -7.00945312 2.84007812 -6.0625 2.5625 C-4.68771484 2.16224609 -4.68771484 2.16224609 -3.28515625 1.75390625 C-1.0597507 1.20973949 -1.0597507 1.20973949 0 0 Z " fill="#5867CD" transform="translate(107,55)"/>
<path d="M0 0 C0 0.99 0 1.98 0 3 C0.66 3.33 1.32 3.66 2 4 C0.54207116 4.05399736 -0.91642712 4.09279177 -2.375 4.125 C-3.18710938 4.14820313 -3.99921875 4.17140625 -4.8359375 4.1953125 C-7 4 -7 4 -9 2 C-3.375 0 -3.375 0 0 0 Z " fill="#586DD8" transform="translate(127,132)"/>
<path d="M0 0 C-0.33 0.99 -0.66 1.98 -1 3 C-4.3 3 -7.6 3 -11 3 C-8.89427904 -1.21144191 -4.11694326 -0.07767817 0 0 Z " fill="#435EF4" transform="translate(142,132)"/>
<path d="M0 0 C1.67542976 0.28604898 3.34385343 0.61781233 5 1 C4 3 4 3 1.25 4.125 C-1.70186896 4.91973395 -3.97219837 5.17810598 -7 5 C-5.60683123 2.21366246 -3.84019484 2.06507306 -1 1 C-0.67 0.67 -0.34 0.34 0 0 Z " fill="#495EE9" transform="translate(102,54)"/>
<path d="M0 0 C1.32 0.66 2.64 1.32 4 2 C3.67 2.99 3.34 3.98 3 5 C1.02 5 -0.96 5 -3 5 C-3 4.01 -3 3.02 -3 2 C-2.01 2 -1.02 2 0 2 C0 1.34 0 0.68 0 0 Z " fill="#7892DD" transform="translate(25,183)"/>
<path d="M0 0 C0 0.33 0 0.66 0 1 C-5.73303505 2.57300962 -10.15659442 3.24327778 -16 2 C-16 1.67 -16 1.34 -16 1 C-10.63904667 -0.12862175 -5.44693314 -0.09688221 0 0 Z " fill="#5065CF" transform="translate(144,130)"/>
<path d="M0 0 C0.74958984 0.05220703 1.49917969 0.10441406 2.27148438 0.15820312 C4.11887082 0.28763784 5.96574371 0.42436518 7.8125 0.5625 C7.8125 0.8925 7.8125 1.2225 7.8125 1.5625 C6.06343341 1.75851608 4.31318154 1.94397403 2.5625 2.125 C1.58796875 2.22941406 0.6134375 2.33382813 -0.390625 2.44140625 C-2.97821423 2.55343874 -4.74458204 2.33394778 -7.1875 1.5625 C-7.93 1.376875 -8.6725 1.19125 -9.4375 1 C-10.015 0.855625 -10.5925 0.71125 -11.1875 0.5625 C-7.35939179 -0.71353607 -3.95274893 -0.30033987 0 0 Z " fill="#8A9DDC" transform="translate(40.1875,5.4375)"/>
<path d="M0 0 C0.66 0.33 1.32 0.66 2 1 C0.35 2.65 -1.3 4.3 -3 6 C-3.99 5.67 -4.98 5.34 -6 5 C-5.67 3.68 -5.34 2.36 -5 1 C-5 1.66 -5 2.32 -5 3 C-3.824375 2.2265625 -3.824375 2.2265625 -2.625 1.4375 C-1.75875 0.963125 -0.8925 0.48875 0 0 Z " fill="#E3EAFA" transform="translate(107,132)"/>
<path d="M0 0 C4.75 0.75 4.75 0.75 7 3 C7 3.66 7 4.32 7 5 C5.35 4.67 3.7 4.34 2 4 C2 3.34 2 2.68 2 2 C1.34 2 0.68 2 0 2 C0 1.34 0 0.68 0 0 Z " fill="#6678E0" transform="translate(79,58)"/>
<path d="M0 0 C-0.75 1.9375 -0.75 1.9375 -2 4 C-4.125 4.75 -4.125 4.75 -6 5 C-6 4.01 -6 3.02 -6 2 C-3 0 -3 0 0 0 Z " fill="#7D8ED7" transform="translate(181,183)"/>
<path d="M0 0 C1.09658936 3.28976808 0.79953138 4.71303767 0 8 C-1.65 8.33 -3.3 8.66 -5 9 C-3.99088542 7.2421875 -2.98177083 5.484375 -1.97265625 3.7265625 C-1.28280949 2.50201525 -0.62855462 1.25710923 0 0 Z " fill="#728BF3" transform="translate(183,163)"/>
<path d="M0 0 C2.64 0 5.28 0 8 0 C8 0.99 8 1.98 8 3 C9.32 3.33 10.64 3.66 12 4 C9.69 3.67 7.38 3.34 5 3 C5 2.34 5 1.68 5 1 C3.35 1.33 1.7 1.66 0 2 C0 1.34 0 0.68 0 0 Z " fill="#D8E4FA" transform="translate(90,139)"/>
<path d="M0 0 C-0.33 0.99 -0.66 1.98 -1 3 C-1.66 3 -2.32 3 -3 3 C-3 3.66 -3 4.32 -3 5 C-4.98 5.33 -6.96 5.66 -9 6 C-3.2 0 -3.2 0 0 0 Z " fill="#8999D2" transform="translate(24,9)"/>
<path d="M0 0 C1.98 0.99 1.98 0.99 4 2 C4 2.99 4 3.98 4 5 C3.01 5.33 2.02 5.66 1 6 C0.67 4.02 0.34 2.04 0 0 Z " fill="#5267DE" transform="translate(85,146)"/>
<path d="M0 0 C-0.33 0.99 -0.66 1.98 -1 3 C-3.06640625 3.73046875 -3.06640625 3.73046875 -5.5625 4.1875 C-6.38878906 4.34605469 -7.21507813 4.50460938 -8.06640625 4.66796875 C-9.02353516 4.83232422 -9.02353516 4.83232422 -10 5 C-10 4.34 -10 3.68 -10 3 C-8.70990357 2.49596232 -7.41786211 1.99690074 -6.125 1.5 C-5.04605469 1.08234375 -5.04605469 1.08234375 -3.9453125 0.65625 C-2 0 -2 0 0 0 Z " fill="#4B60E7" transform="translate(117,61)"/>
<path d="M0 0 C6.75 0.75 6.75 0.75 9 3 C6.36 3 3.72 3 1 3 C0.67 2.01 0.34 1.02 0 0 Z " fill="#495FEA" transform="translate(72,58)"/>
<path d="M0 0 C0.99 0 1.98 0 3 0 C2.34 1.65 1.68 3.3 1 5 C0.01 5 -0.98 5 -2 5 C-1.34 3.35 -0.68 1.7 0 0 Z " fill="#5B69BE" transform="translate(105,140)"/>
<path d="M0 0 C1.32 0 2.64 0 4 0 C4 0.66 4 1.32 4 2 C4.66 2.33 5.32 2.66 6 3 C5.01 3.66 4.02 4.32 3 5 C1.5 3.625 1.5 3.625 0 2 C0 1.34 0 0.68 0 0 Z " fill="#6975BE" transform="translate(91,140)"/>
<path d="M0 0 C2.97 0 5.94 0 9 0 C9 0.33 9 0.66 9 1 C7.906875 1.103125 6.81375 1.20625 5.6875 1.3125 C2.14440371 1.97307727 1.06756277 2.2027092 -1 5 C-0.67 3.35 -0.34 1.7 0 0 Z " fill="#E4EBFF" transform="translate(36,62)"/>
<path d="M0 0 C2.9375 0.8125 2.9375 0.8125 6 2 C6.33 2.99 6.66 3.98 7 5 C4.03 4.01 1.06 3.02 -2 2 C-1.34 1.34 -0.68 0.68 0 0 Z " fill="#6B86F8" transform="translate(164,15)"/>
</svg>
