<?xml version="1.0" standalone="no"?>
<!DOCTYPE svg PUBLIC "-//W3C//DTD SVG 20010904//EN"
 "http://www.w3.org/TR/2001/REC-SVG-20010904/DTD/svg10.dtd">
<svg version="1.0" xmlns="http://www.w3.org/2000/svg"
 width="300.000000pt" height="108.000000pt" viewBox="0 0 300.000000 108.000000"
 preserveAspectRatio="xMidYMid meet">
<metadata>
Created by potrace 1.10, written by Peter Selinger 2001-2011
</metadata>
<g transform="translate(0.000000,108.000000) scale(0.100000,-0.100000)"
fill="#000000" stroke="none">
<path d="M279 805 c-53 -29 -61 -67 -57 -273 4 -271 -3 -265 301 -260 l209 3
29 33 29 32 0 206 0 206 -34 34 -34 34 -208 0 c-161 -1 -215 -4 -235 -15z
m448 -21 c48 -36 53 -56 53 -237 0 -185 -9 -224 -56 -246 -16 -7 -95 -11 -222
-11 -270 1 -262 -7 -262 255 0 189 7 220 52 242 40 20 49 21 230 19 162 -2
180 -4 205 -22z"/>
<path d="M303 778 c-43 -21 -53 -64 -53 -232 0 -177 9 -215 57 -235 21 -9 85
-11 217 -9 l188 3 24 28 c23 28 24 32 24 213 l0 186 -29 29 -29 29 -189 -1
c-111 0 -197 -5 -210 -11z m402 -12 c38 -10 45 -46 45 -221 0 -173 -7 -209
-44 -221 -12 -4 -102 -7 -200 -6 -160 1 -182 3 -205 20 l-26 19 -3 179 c-3
197 2 219 51 232 32 8 347 7 382 -2z"/>
<path d="M324 683 l-34 -37 0 -112 c0 -91 3 -114 16 -125 17 -14 136 -31 209
-31 61 1 178 16 193 25 8 6 12 44 12 133 l0 125 -30 29 c-35 34 -47 36 -116
15 -50 -14 -69 -14 -139 4 -63 16 -75 13 -111 -26z m149 -8 c26 -13 35 -13 88
5 82 28 109 27 109 -5 0 -18 4 -23 15 -19 13 5 15 -12 15 -120 l0 -126 -74 0
c-41 0 -78 -4 -81 -10 -8 -13 -58 -13 -71 0 -5 5 -43 10 -84 12 -41 2 -74 6
-72 11 1 4 2 59 2 123 0 99 2 115 15 110 11 -4 15 2 15 21 0 25 1 26 46 19 26
-3 60 -13 77 -21z"/>
<path d="M370 576 l0 -106 30 0 c17 0 46 -7 65 -14 l35 -15 0 100 0 100 -32
13 c-18 8 -48 17 -65 21 l-33 7 0 -106z m67 68 c13 -4 20 -10 17 -15 -3 -5 2
-12 10 -15 12 -5 16 -20 16 -60 0 -50 -2 -54 -27 -60 -14 -4 -33 -2 -42 3 -17
11 -25 70 -16 121 6 34 8 35 42 26z"/>
<path d="M595 671 c-73 -18 -75 -22 -75 -131 l0 -99 35 15 c19 7 48 14 65 14
l30 0 0 105 c0 112 2 109 -55 96z m29 -38 c3 -10 5 -40 4 -66 -1 -64 -26 -89
-72 -71 -12 5 -16 21 -16 65 0 32 4 58 9 57 5 -2 9 1 9 7 1 9 27 23 49 24 6 1
14 -7 17 -16z"/>
<path d="M342 538 l-2 -108 68 1 c69 1 62 10 -20 24 l-37 6 -4 92 -3 92 -2
-107z"/>
<path d="M670 550 l0 -89 -37 -6 c-83 -14 -90 -23 -20 -24 l67 -1 0 105 c0 58
-2 105 -5 105 -3 0 -5 -40 -5 -90z"/>
<path d="M1314 696 c-10 -26 4 -48 28 -44 17 2 23 10 23 28 0 18 -6 26 -23 28
-13 2 -25 -3 -28 -12z"/>
<path d="M1020 552 l0 -149 78 5 c90 5 125 21 152 65 24 39 26 116 5 158 -26
50 -69 69 -157 69 l-78 0 0 -148z m145 93 c52 -25 67 -76 41 -139 -14 -34 -54
-56 -102 -56 -24 0 -24 1 -24 105 l0 105 26 0 c14 0 41 -7 59 -15z"/>
<path d="M1510 613 c-8 -3 -24 -13 -34 -22 -18 -15 -19 -15 -13 2 5 13 1 17
-21 17 l-27 0 2 -102 c2 -102 2 -103 27 -106 26 -3 26 -3 26 71 0 81 11 101
52 95 21 -3 23 -9 28 -83 5 -78 6 -80 33 -83 l27 -3 0 71 c0 76 -20 140 -44
140 -8 0 -20 2 -28 4 -7 3 -20 2 -28 -1z"/>
<path d="M1714 609 c-48 -14 -69 -44 -69 -100 0 -40 5 -54 28 -76 22 -23 36
-28 76 -28 57 0 84 19 101 71 28 84 -47 158 -136 133z m70 -55 c19 -18 21 -75
4 -92 -7 -7 -24 -12 -40 -12 -50 0 -71 63 -36 108 14 17 53 15 72 -4z"/>
<path d="M1310 505 l0 -105 30 0 30 0 0 105 0 105 -30 0 -30 0 0 -105z"/>
</g>
</svg>
